<mxfile host="app.diagrams.net" modified="2023-09-08T16:51:34.076Z" agent="Mozilla/5.0 (Windows NT 10.0; Win64; x64) AppleWebKit/537.36 (KHTML, like Gecko) Chrome/116.0.0.0 Safari/537.36" etag="EiDDFjrq1CoWBNCoz8tM" version="21.7.2" type="device">
  <diagram id="C5RBs43oDa-KdzZeNtuy" name="Page-1">
    <mxGraphModel dx="1855" dy="515" grid="1" gridSize="10" guides="1" tooltips="1" connect="1" arrows="1" fold="1" page="1" pageScale="1" pageWidth="827" pageHeight="1169" math="0" shadow="0">
      <root>
        <mxCell id="WIyWlLk6GJQsqaUBKTNV-0" />
        <mxCell id="WIyWlLk6GJQsqaUBKTNV-1" parent="WIyWlLk6GJQsqaUBKTNV-0" />
        <mxCell id="zkfFHV4jXpPFQw0GAbJ--0" value="Person" style="swimlane;fontStyle=2;align=center;verticalAlign=top;childLayout=stackLayout;horizontal=1;startSize=26;horizontalStack=0;resizeParent=1;resizeLast=0;collapsible=1;marginBottom=0;rounded=0;shadow=0;strokeWidth=1;" parent="WIyWlLk6GJQsqaUBKTNV-1" vertex="1">
          <mxGeometry x="220" y="120" width="160" height="138" as="geometry">
            <mxRectangle x="230" y="140" width="160" height="26" as="alternateBounds" />
          </mxGeometry>
        </mxCell>
        <mxCell id="zkfFHV4jXpPFQw0GAbJ--1" value="Name" style="text;align=left;verticalAlign=top;spacingLeft=4;spacingRight=4;overflow=hidden;rotatable=0;points=[[0,0.5],[1,0.5]];portConstraint=eastwest;" parent="zkfFHV4jXpPFQw0GAbJ--0" vertex="1">
          <mxGeometry y="26" width="160" height="26" as="geometry" />
        </mxCell>
        <mxCell id="zkfFHV4jXpPFQw0GAbJ--2" value="Phone Number" style="text;align=left;verticalAlign=top;spacingLeft=4;spacingRight=4;overflow=hidden;rotatable=0;points=[[0,0.5],[1,0.5]];portConstraint=eastwest;rounded=0;shadow=0;html=0;" parent="zkfFHV4jXpPFQw0GAbJ--0" vertex="1">
          <mxGeometry y="52" width="160" height="26" as="geometry" />
        </mxCell>
        <mxCell id="zkfFHV4jXpPFQw0GAbJ--3" value="Email Address" style="text;align=left;verticalAlign=top;spacingLeft=4;spacingRight=4;overflow=hidden;rotatable=0;points=[[0,0.5],[1,0.5]];portConstraint=eastwest;rounded=0;shadow=0;html=0;" parent="zkfFHV4jXpPFQw0GAbJ--0" vertex="1">
          <mxGeometry y="78" width="160" height="26" as="geometry" />
        </mxCell>
        <mxCell id="zkfFHV4jXpPFQw0GAbJ--4" value="" style="line;html=1;strokeWidth=1;align=left;verticalAlign=middle;spacingTop=-1;spacingLeft=3;spacingRight=3;rotatable=0;labelPosition=right;points=[];portConstraint=eastwest;" parent="zkfFHV4jXpPFQw0GAbJ--0" vertex="1">
          <mxGeometry y="104" width="160" height="8" as="geometry" />
        </mxCell>
        <mxCell id="zkfFHV4jXpPFQw0GAbJ--5" value="Purchase Parking Pass" style="text;align=left;verticalAlign=top;spacingLeft=4;spacingRight=4;overflow=hidden;rotatable=0;points=[[0,0.5],[1,0.5]];portConstraint=eastwest;" parent="zkfFHV4jXpPFQw0GAbJ--0" vertex="1">
          <mxGeometry y="112" width="160" height="26" as="geometry" />
        </mxCell>
        <mxCell id="zkfFHV4jXpPFQw0GAbJ--6" value="Student" style="swimlane;fontStyle=0;align=center;verticalAlign=top;childLayout=stackLayout;horizontal=1;startSize=26;horizontalStack=0;resizeParent=1;resizeLast=0;collapsible=1;marginBottom=0;rounded=0;shadow=0;strokeWidth=1;" parent="WIyWlLk6GJQsqaUBKTNV-1" vertex="1">
          <mxGeometry x="120" y="360" width="160" height="138" as="geometry">
            <mxRectangle x="130" y="380" width="160" height="26" as="alternateBounds" />
          </mxGeometry>
        </mxCell>
        <mxCell id="zkfFHV4jXpPFQw0GAbJ--7" value="Student Number" style="text;align=left;verticalAlign=top;spacingLeft=4;spacingRight=4;overflow=hidden;rotatable=0;points=[[0,0.5],[1,0.5]];portConstraint=eastwest;" parent="zkfFHV4jXpPFQw0GAbJ--6" vertex="1">
          <mxGeometry y="26" width="160" height="26" as="geometry" />
        </mxCell>
        <mxCell id="zkfFHV4jXpPFQw0GAbJ--8" value="Average Mark" style="text;align=left;verticalAlign=top;spacingLeft=4;spacingRight=4;overflow=hidden;rotatable=0;points=[[0,0.5],[1,0.5]];portConstraint=eastwest;rounded=0;shadow=0;html=0;" parent="zkfFHV4jXpPFQw0GAbJ--6" vertex="1">
          <mxGeometry y="52" width="160" height="26" as="geometry" />
        </mxCell>
        <mxCell id="zkfFHV4jXpPFQw0GAbJ--9" value="" style="line;html=1;strokeWidth=1;align=left;verticalAlign=middle;spacingTop=-1;spacingLeft=3;spacingRight=3;rotatable=0;labelPosition=right;points=[];portConstraint=eastwest;" parent="zkfFHV4jXpPFQw0GAbJ--6" vertex="1">
          <mxGeometry y="78" width="160" height="8" as="geometry" />
        </mxCell>
        <mxCell id="zkfFHV4jXpPFQw0GAbJ--10" value="Is Eligible To Enroll" style="text;align=left;verticalAlign=top;spacingLeft=4;spacingRight=4;overflow=hidden;rotatable=0;points=[[0,0.5],[1,0.5]];portConstraint=eastwest;fontStyle=4" parent="zkfFHV4jXpPFQw0GAbJ--6" vertex="1">
          <mxGeometry y="86" width="160" height="26" as="geometry" />
        </mxCell>
        <mxCell id="zkfFHV4jXpPFQw0GAbJ--11" value="Get Seminars Taken" style="text;align=left;verticalAlign=top;spacingLeft=4;spacingRight=4;overflow=hidden;rotatable=0;points=[[0,0.5],[1,0.5]];portConstraint=eastwest;" parent="zkfFHV4jXpPFQw0GAbJ--6" vertex="1">
          <mxGeometry y="112" width="160" height="26" as="geometry" />
        </mxCell>
        <mxCell id="zkfFHV4jXpPFQw0GAbJ--12" value="" style="endArrow=block;endSize=10;endFill=0;shadow=0;strokeWidth=1;rounded=0;edgeStyle=elbowEdgeStyle;elbow=vertical;" parent="WIyWlLk6GJQsqaUBKTNV-1" source="zkfFHV4jXpPFQw0GAbJ--6" target="zkfFHV4jXpPFQw0GAbJ--0" edge="1">
          <mxGeometry width="160" relative="1" as="geometry">
            <mxPoint x="200" y="203" as="sourcePoint" />
            <mxPoint x="200" y="203" as="targetPoint" />
          </mxGeometry>
        </mxCell>
        <mxCell id="zkfFHV4jXpPFQw0GAbJ--13" value="Professor" style="swimlane;fontStyle=0;align=center;verticalAlign=top;childLayout=stackLayout;horizontal=1;startSize=26;horizontalStack=0;resizeParent=1;resizeLast=0;collapsible=1;marginBottom=0;rounded=0;shadow=0;strokeWidth=1;" parent="WIyWlLk6GJQsqaUBKTNV-1" vertex="1">
          <mxGeometry x="330" y="360" width="160" height="70" as="geometry">
            <mxRectangle x="340" y="380" width="170" height="26" as="alternateBounds" />
          </mxGeometry>
        </mxCell>
        <mxCell id="zkfFHV4jXpPFQw0GAbJ--14" value="Salary" style="text;align=left;verticalAlign=top;spacingLeft=4;spacingRight=4;overflow=hidden;rotatable=0;points=[[0,0.5],[1,0.5]];portConstraint=eastwest;" parent="zkfFHV4jXpPFQw0GAbJ--13" vertex="1">
          <mxGeometry y="26" width="160" height="26" as="geometry" />
        </mxCell>
        <mxCell id="zkfFHV4jXpPFQw0GAbJ--15" value="" style="line;html=1;strokeWidth=1;align=left;verticalAlign=middle;spacingTop=-1;spacingLeft=3;spacingRight=3;rotatable=0;labelPosition=right;points=[];portConstraint=eastwest;" parent="zkfFHV4jXpPFQw0GAbJ--13" vertex="1">
          <mxGeometry y="52" width="160" height="8" as="geometry" />
        </mxCell>
        <mxCell id="zkfFHV4jXpPFQw0GAbJ--16" value="" style="endArrow=block;endSize=10;endFill=0;shadow=0;strokeWidth=1;rounded=0;edgeStyle=elbowEdgeStyle;elbow=vertical;" parent="WIyWlLk6GJQsqaUBKTNV-1" source="zkfFHV4jXpPFQw0GAbJ--13" target="zkfFHV4jXpPFQw0GAbJ--0" edge="1">
          <mxGeometry width="160" relative="1" as="geometry">
            <mxPoint x="210" y="373" as="sourcePoint" />
            <mxPoint x="310" y="271" as="targetPoint" />
          </mxGeometry>
        </mxCell>
        <mxCell id="zkfFHV4jXpPFQw0GAbJ--17" value="Address" style="swimlane;fontStyle=0;align=center;verticalAlign=top;childLayout=stackLayout;horizontal=1;startSize=26;horizontalStack=0;resizeParent=1;resizeLast=0;collapsible=1;marginBottom=0;rounded=0;shadow=0;strokeWidth=1;" parent="WIyWlLk6GJQsqaUBKTNV-1" vertex="1">
          <mxGeometry x="508" y="120" width="160" height="216" as="geometry">
            <mxRectangle x="550" y="140" width="160" height="26" as="alternateBounds" />
          </mxGeometry>
        </mxCell>
        <mxCell id="zkfFHV4jXpPFQw0GAbJ--18" value="Street" style="text;align=left;verticalAlign=top;spacingLeft=4;spacingRight=4;overflow=hidden;rotatable=0;points=[[0,0.5],[1,0.5]];portConstraint=eastwest;" parent="zkfFHV4jXpPFQw0GAbJ--17" vertex="1">
          <mxGeometry y="26" width="160" height="26" as="geometry" />
        </mxCell>
        <mxCell id="zkfFHV4jXpPFQw0GAbJ--19" value="City" style="text;align=left;verticalAlign=top;spacingLeft=4;spacingRight=4;overflow=hidden;rotatable=0;points=[[0,0.5],[1,0.5]];portConstraint=eastwest;rounded=0;shadow=0;html=0;" parent="zkfFHV4jXpPFQw0GAbJ--17" vertex="1">
          <mxGeometry y="52" width="160" height="26" as="geometry" />
        </mxCell>
        <mxCell id="zkfFHV4jXpPFQw0GAbJ--20" value="State" style="text;align=left;verticalAlign=top;spacingLeft=4;spacingRight=4;overflow=hidden;rotatable=0;points=[[0,0.5],[1,0.5]];portConstraint=eastwest;rounded=0;shadow=0;html=0;" parent="zkfFHV4jXpPFQw0GAbJ--17" vertex="1">
          <mxGeometry y="78" width="160" height="26" as="geometry" />
        </mxCell>
        <mxCell id="zkfFHV4jXpPFQw0GAbJ--21" value="Postal Code" style="text;align=left;verticalAlign=top;spacingLeft=4;spacingRight=4;overflow=hidden;rotatable=0;points=[[0,0.5],[1,0.5]];portConstraint=eastwest;rounded=0;shadow=0;html=0;" parent="zkfFHV4jXpPFQw0GAbJ--17" vertex="1">
          <mxGeometry y="104" width="160" height="26" as="geometry" />
        </mxCell>
        <mxCell id="zkfFHV4jXpPFQw0GAbJ--22" value="Country" style="text;align=left;verticalAlign=top;spacingLeft=4;spacingRight=4;overflow=hidden;rotatable=0;points=[[0,0.5],[1,0.5]];portConstraint=eastwest;rounded=0;shadow=0;html=0;" parent="zkfFHV4jXpPFQw0GAbJ--17" vertex="1">
          <mxGeometry y="130" width="160" height="26" as="geometry" />
        </mxCell>
        <mxCell id="zkfFHV4jXpPFQw0GAbJ--23" value="" style="line;html=1;strokeWidth=1;align=left;verticalAlign=middle;spacingTop=-1;spacingLeft=3;spacingRight=3;rotatable=0;labelPosition=right;points=[];portConstraint=eastwest;" parent="zkfFHV4jXpPFQw0GAbJ--17" vertex="1">
          <mxGeometry y="156" width="160" height="8" as="geometry" />
        </mxCell>
        <mxCell id="zkfFHV4jXpPFQw0GAbJ--24" value="Validate" style="text;align=left;verticalAlign=top;spacingLeft=4;spacingRight=4;overflow=hidden;rotatable=0;points=[[0,0.5],[1,0.5]];portConstraint=eastwest;" parent="zkfFHV4jXpPFQw0GAbJ--17" vertex="1">
          <mxGeometry y="164" width="160" height="26" as="geometry" />
        </mxCell>
        <mxCell id="zkfFHV4jXpPFQw0GAbJ--25" value="Output As Label" style="text;align=left;verticalAlign=top;spacingLeft=4;spacingRight=4;overflow=hidden;rotatable=0;points=[[0,0.5],[1,0.5]];portConstraint=eastwest;" parent="zkfFHV4jXpPFQw0GAbJ--17" vertex="1">
          <mxGeometry y="190" width="160" height="26" as="geometry" />
        </mxCell>
        <mxCell id="zkfFHV4jXpPFQw0GAbJ--26" value="" style="endArrow=open;shadow=0;strokeWidth=1;rounded=0;endFill=1;edgeStyle=elbowEdgeStyle;elbow=vertical;" parent="WIyWlLk6GJQsqaUBKTNV-1" source="zkfFHV4jXpPFQw0GAbJ--0" target="zkfFHV4jXpPFQw0GAbJ--17" edge="1">
          <mxGeometry x="0.5" y="41" relative="1" as="geometry">
            <mxPoint x="380" y="192" as="sourcePoint" />
            <mxPoint x="540" y="192" as="targetPoint" />
            <mxPoint x="-40" y="32" as="offset" />
          </mxGeometry>
        </mxCell>
        <mxCell id="zkfFHV4jXpPFQw0GAbJ--27" value="0..1" style="resizable=0;align=left;verticalAlign=bottom;labelBackgroundColor=none;fontSize=12;" parent="zkfFHV4jXpPFQw0GAbJ--26" connectable="0" vertex="1">
          <mxGeometry x="-1" relative="1" as="geometry">
            <mxPoint y="4" as="offset" />
          </mxGeometry>
        </mxCell>
        <mxCell id="zkfFHV4jXpPFQw0GAbJ--28" value="1" style="resizable=0;align=right;verticalAlign=bottom;labelBackgroundColor=none;fontSize=12;" parent="zkfFHV4jXpPFQw0GAbJ--26" connectable="0" vertex="1">
          <mxGeometry x="1" relative="1" as="geometry">
            <mxPoint x="-7" y="4" as="offset" />
          </mxGeometry>
        </mxCell>
        <mxCell id="zkfFHV4jXpPFQw0GAbJ--29" value="lives at" style="text;html=1;resizable=0;points=[];;align=center;verticalAlign=middle;labelBackgroundColor=none;rounded=0;shadow=0;strokeWidth=1;fontSize=12;" parent="zkfFHV4jXpPFQw0GAbJ--26" vertex="1" connectable="0">
          <mxGeometry x="0.5" y="49" relative="1" as="geometry">
            <mxPoint x="-38" y="40" as="offset" />
          </mxGeometry>
        </mxCell>
        <UserObject label="" plantUmlData="{&quot;data&quot;:&quot;@startuml\n\nclass Usuario {\n  - username: String\n  - contraseña: String\n  + Usuario()\n  + getUsername(): String\n  + getContraseña(): String\n }\n\nclass Cliente {\n  - nombre: String\n  - NIT: String\n  - dirección: String\n  - historialDePedidos: List&lt;Pedido&gt;\n  + UsuarioCliente()\n  + getNombre(): String\n  + setNombre(nombre: String): void\n  + getNIT(): String\n  + setNIT(NIT: String): void\n  + getDirección(): String\n  + setDirección(dirección: String): void\n  + realizarPedido(velas: List&lt;Velas&gt;): void\n  + verHistorialDePedidos(): List&lt;Pedido&gt;\n}\n\nclass EstadoDelPedido {\n  PedidoTomado\n  Trabajando\n  EnEnvío\n  Entregado\n}\n\nclass MateriaPrima {\n  - nombre: String\n  - cantidadDisponible: int\n  - proveedor: Proveedor\n  - costo: double\n  + MateriaPrima()\n  + getNombre(): String\n  + setNombre(nombre: String): void\n  + getCantidadDisponible(): int\n  + setCantidadDisponible(cantidad: int): void\n  + getProveedor(): Proveedor\n  + setProveedor(proveedor: Proveedor): void\n  + getCosto(): double\n  + setCosto(costo: double): void\n  + actualizarCantidad(nuevaCantidad: int): void\n  + calcularCostoTotal(cantidad: int): double\n}\n\nclass Proveedor {\n  - nombreProveedor: String\n  - materiaPrimaQueProvee: List&lt;MateriaPrima&gt;\n  + Proveedor()\n  + getNombreProveedor(): String\n  + setNombreProveedor(nombreProveedor: String): void\n  + verMateriaPrima(materiaPrima: MateriaPrima, nuevaCantidad: int): void\n}\n\nclass Velas {\n  - categoría: String\n  - temporada: String\n  - numeroVela: int\n  - precio: double\n  - existencias: int\n  - cantidadLaminaUsada: double\n  + Velas()\n  + getCategoría(): String\n  + setCategoría(categoría: String): void\n  + getTemporada(): String\n  + setTemporada(temporada: String): void\n  + getNumeroVela(): int\n  + setNumeroVela(numeroVela: int): void\n  + getPrecio(): double\n  + setPrecio(precio: double): void\n  + getExistencias(): int\n  + setExistencias(existencias: int): void\n  + getCantidadLaminaUsada(): double\n  + setCantidadLaminaUsada(cantidadLaminaUsada: double): void\n}\n\nclass Pedido {\n  - velas: List&lt;Velas&gt;\n  - usuario: UsuarioCliente\n  - estadoDelPedido: EstadoDelPedido\n  + Pedido()\n  + getVelas(): List&lt;Velas&gt;\n  + setVelas(velas: List&lt;Velas&gt;): void\n  + getUsuario(): UsuarioCliente\n  + setUsuario(usuario: UsuarioCliente): void\n  + getEstadoDelPedido(): EstadoDelPedido\n  + setEstadoDelPedido(estadoDelPedido: EstadoDelPedido): void\n  + actualizarEstado(nuevoEstado: EstadoDelPedido): void\n}\n\nclass EmpresaDeMensajería {\n  - fechaEstimadaDeEnvio: Date\n  - estadoDelPedido: EstadoDelPedido\n  + EmpresaDeMensajería()\n  + getFechaEstimadaDeEnvio(): Date\n  + setFechaEstimadaDeEnvio(fechaEstimadaDeEnvio: Date): void\n  + getEstadoDelPedido(): EstadoDelPedido\n  + setEstadoDelPedido(estadoDelPedido: EstadoDelPedido): void\n}\n\nclass RegistroDeVelas {\n  - velas: List&lt;Velas&gt;\n  + RegistroDeVelas()\n  + getVelas(): List&lt;Velas&gt;\n  + Modificar(): void\n  + Eliminar(): void\n  + Insertar(): void\n}\n\nclass Ventas {\n  - totalVentas: double\n  + Ventas()\n  + getTotalVentas(): double\n  + setTotalVentas(totalVentas: double): void\n  + registrarVenta(monto: double): void\n}\n\nPedido *-- EstadoDelPedido\nPedido *-- Velas\nPedido *-- Cliente\nEmpresaDeMensajería *-- EstadoDelPedido\nProveedor *-- MateriaPrima\nRegistroDeVelas *-- Velas\nCliente *-- Ventas\n@enduml\n\n&quot;,&quot;format&quot;:&quot;svg&quot;}" id="owTy2cs3fQSGOrCpe9cb-0">
          <mxCell style="shape=image;noLabel=1;verticalAlign=top;aspect=fixed;imageAspect=0;image=data:image/svg+xml,PD94bWwgdmVyc2lvbj0iMS4wIiBlbmNvZGluZz0idXMtYXNjaWkiIHN0YW5kYWxvbmU9Im5vIj8+PHN2ZyB4bWxucz0iaHR0cDovL3d3dy53My5vcmcvMjAwMC9zdmciIHhtbG5zOnhsaW5rPSJodHRwOi8vd3d3LnczLm9yZy8xOTk5L3hsaW5rIiBjb250ZW50U3R5bGVUeXBlPSJ0ZXh0L2NzcyIgaGVpZ2h0PSI4MDJweCIgcHJlc2VydmVBc3BlY3RSYXRpbz0ibm9uZSIgc3R5bGU9IndpZHRoOjE5NzVweDtoZWlnaHQ6ODAycHg7YmFja2dyb3VuZDojRkZGRkZGOyIgdmVyc2lvbj0iMS4xIiB2aWV3Qm94PSIwIDAgMTk3NSA4MDIiIHdpZHRoPSIxOTc1cHgiIHpvb21BbmRQYW49Im1hZ25pZnkiPjxkZWZzLz48Zz48IS0tY2xhc3MgVXN1YXJpby0tPjxnIGlkPSJlbGVtX1VzdWFyaW8iPjxyZWN0IGNvZGVMaW5lPSIxIiBmaWxsPSIjRjFGMUYxIiBoZWlnaHQ9IjEyMi45MjE5IiBpZD0iVXN1YXJpbyIgcng9IjIuNSIgcnk9IjIuNSIgc3R5bGU9InN0cm9rZTojMTgxODE4O3N0cm9rZS13aWR0aDowLjU7IiB3aWR0aD0iMTg5IiB4PSI3IiB5PSI1MiIvPjxlbGxpcHNlIGN4PSI3Mi43NSIgY3k9IjY4IiBmaWxsPSIjQUREMUIyIiByeD0iMTEiIHJ5PSIxMSIgc3R5bGU9InN0cm9rZTojMTgxODE4O3N0cm9rZS13aWR0aDoxLjA7Ii8+PHBhdGggZD0iTTcwLjM3NSw3Mi4yNSBMNzAuMzc1LDc0IEw3NS4zMTI1LDc0IEw3NS4zMTI1LDcyLjI1IEw3MC4zNzUsNzIuMjUgWiBNNzEuMDYyNSw3Mi45Mzc1IFE3MS4wNjI1LDcyLjkzNzUgNzEuMDYyNSw2My43NSBMNjkuMzEyNSw2My43NSBRNjkuMzEyNSw2My43NSA2OS4zMTI1LDcyLjkzNzUgTDcxLjA2MjUsNzIuOTM3NSBaIE03NC42MjUsNzIuOTM3NSBMNzYuMzc1LDcyLjkzNzUgUTc2LjM3NSw3Mi45Mzc1IDc2LjM3NSw3MC4xMjUgTDc0LjYyNSw3MC4xMjUgUTc0LjYyNSw3MC4xMjUgNzQuNjI1LDcyLjkzNzUgWiBNNzQuNjI1LDYzLjc1IFE3NC42MjUsNjMuNzUgNzQuNjI1LDY2LjU2MjUgTDc2LjM3NSw2Ni41NjI1IFE3Ni4zNzUsNjYuNTYyNSA3Ni4zNzUsNjMuNzUgTDc0LjYyNSw2My43NSBaIE03MC4zNzUsNjQuNDM3NSBMNzUuMzEyNSw2NC40Mzc1IEw3NS4zMTI1LDYyLjY4NzUgTDcwLjM3NSw2Mi42ODc1IEw3MC4zNzUsNjQuNDM3NSBaICIgZmlsbD0iIzAwMDAwMCIvPjx0ZXh0IGZpbGw9IiMwMDAwMDAiIGZvbnQtZmFtaWx5PSJzYW5zLXNlcmlmIiBmb250LXNpemU9IjE0IiBsZW5ndGhBZGp1c3Q9InNwYWNpbmciIHRleHRMZW5ndGg9IjQ5IiB4PSI5My4yNSIgeT0iNzMuNzQyMiI+VXN1YXJpbzwvdGV4dD48bGluZSBzdHlsZT0ic3Ryb2tlOiMxODE4MTg7c3Ryb2tlLXdpZHRoOjAuNTsiIHgxPSI4IiB4Mj0iMTk1IiB5MT0iODQiIHkyPSI4NCIvPjxyZWN0IGZpbGw9Im5vbmUiIGhlaWdodD0iNiIgc3R5bGU9InN0cm9rZTojQzgyOTMwO3N0cm9rZS13aWR0aDoxLjA7IiB3aWR0aD0iNiIgeD0iMTUiIHk9IjkzLjk5MjIiLz48dGV4dCBmaWxsPSIjMDAwMDAwIiBmb250LWZhbWlseT0ic2Fucy1zZXJpZiIgZm9udC1zaXplPSIxNCIgbGVuZ3RoQWRqdXN0PSJzcGFjaW5nIiB0ZXh0TGVuZ3RoPSIxMTMiIHg9IjI3IiB5PSIxMDEuMjM0NCI+dXNlcm5hbWU6IFN0cmluZzwvdGV4dD48cmVjdCBmaWxsPSJub25lIiBoZWlnaHQ9IjYiIHN0eWxlPSJzdHJva2U6I0M4MjkzMDtzdHJva2Utd2lkdGg6MS4wOyIgd2lkdGg9IjYiIHg9IjE1IiB5PSIxMDguOTc2NiIvPjx0ZXh0IGZpbGw9IiMwMDAwMDAiIGZvbnQtZmFtaWx5PSJzYW5zLXNlcmlmIiBmb250LXNpemU9IjE0IiBsZW5ndGhBZGp1c3Q9InNwYWNpbmciIHRleHRMZW5ndGg9IjEyNiIgeD0iMjciIHk9IjExNi4yMTg4Ij5jb250cmFzZSYjMjQxO2E6IFN0cmluZzwvdGV4dD48bGluZSBzdHlsZT0ic3Ryb2tlOiMxODE4MTg7c3Ryb2tlLXdpZHRoOjAuNTsiIHgxPSI4IiB4Mj0iMTk1IiB5MT0iMTIxLjk2ODgiIHkyPSIxMjEuOTY4OCIvPjxlbGxpcHNlIGN4PSIxOCIgY3k9IjEzNC45NjA5IiBmaWxsPSIjODRCRTg0IiByeD0iMyIgcnk9IjMiIHN0eWxlPSJzdHJva2U6IzAzODA0ODtzdHJva2Utd2lkdGg6MS4wOyIvPjx0ZXh0IGZpbGw9IiMwMDAwMDAiIGZvbnQtZmFtaWx5PSJzYW5zLXNlcmlmIiBmb250LXNpemU9IjE0IiBsZW5ndGhBZGp1c3Q9InNwYWNpbmciIHRleHRMZW5ndGg9IjY1IiB4PSIyNyIgeT0iMTM5LjIwMzEiPlVzdWFyaW8oKTwvdGV4dD48ZWxsaXBzZSBjeD0iMTgiIGN5PSIxNDkuOTQ1MyIgZmlsbD0iIzg0QkU4NCIgcng9IjMiIHJ5PSIzIiBzdHlsZT0ic3Ryb2tlOiMwMzgwNDg7c3Ryb2tlLXdpZHRoOjEuMDsiLz48dGV4dCBmaWxsPSIjMDAwMDAwIiBmb250LWZhbWlseT0ic2Fucy1zZXJpZiIgZm9udC1zaXplPSIxNCIgbGVuZ3RoQWRqdXN0PSJzcGFjaW5nIiB0ZXh0TGVuZ3RoPSIxNTAiIHg9IjI3IiB5PSIxNTQuMTg3NSI+Z2V0VXNlcm5hbWUoKTogU3RyaW5nPC90ZXh0PjxlbGxpcHNlIGN4PSIxOCIgY3k9IjE2NC45Mjk3IiBmaWxsPSIjODRCRTg0IiByeD0iMyIgcnk9IjMiIHN0eWxlPSJzdHJva2U6IzAzODA0ODtzdHJva2Utd2lkdGg6MS4wOyIvPjx0ZXh0IGZpbGw9IiMwMDAwMDAiIGZvbnQtZmFtaWx5PSJzYW5zLXNlcmlmIiBmb250LXNpemU9IjE0IiBsZW5ndGhBZGp1c3Q9InNwYWNpbmciIHRleHRMZW5ndGg9IjE2MyIgeD0iMjciIHk9IjE2OS4xNzE5Ij5nZXRDb250cmFzZSYjMjQxO2EoKTogU3RyaW5nPC90ZXh0PjwvZz48IS0tY2xhc3MgQ2xpZW50ZS0tPjxnIGlkPSJlbGVtX0NsaWVudGUiPjxyZWN0IGNvZGVMaW5lPSI5IiBmaWxsPSIjRjFGMUYxIiBoZWlnaHQ9IjI0Mi43OTY5IiBpZD0iQ2xpZW50ZSIgcng9IjIuNSIgcnk9IjIuNSIgc3R5bGU9InN0cm9rZTojMTgxODE4O3N0cm9rZS13aWR0aDowLjU7IiB3aWR0aD0iMzA4IiB4PSI3MzQuNSIgeT0iMzI1Ii8+PGVsbGlwc2UgY3g9Ijg1OS43NSIgY3k9IjM0MSIgZmlsbD0iI0FERDFCMiIgcng9IjExIiByeT0iMTEiIHN0eWxlPSJzdHJva2U6IzE4MTgxODtzdHJva2Utd2lkdGg6MS4wOyIvPjxwYXRoIGQ9Ik04NTcuMzc1LDM0NS4yNSBMODU3LjM3NSwzNDcgTDg2Mi4zMTI1LDM0NyBMODYyLjMxMjUsMzQ1LjI1IEw4NTcuMzc1LDM0NS4yNSBaIE04NTguMDYyNSwzNDUuOTM3NSBRODU4LjA2MjUsMzQ1LjkzNzUgODU4LjA2MjUsMzM2Ljc1IEw4NTYuMzEyNSwzMzYuNzUgUTg1Ni4zMTI1LDMzNi43NSA4NTYuMzEyNSwzNDUuOTM3NSBMODU4LjA2MjUsMzQ1LjkzNzUgWiBNODYxLjYyNSwzNDUuOTM3NSBMODYzLjM3NSwzNDUuOTM3NSBRODYzLjM3NSwzNDUuOTM3NSA4NjMuMzc1LDM0My4xMjUgTDg2MS42MjUsMzQzLjEyNSBRODYxLjYyNSwzNDMuMTI1IDg2MS42MjUsMzQ1LjkzNzUgWiBNODYxLjYyNSwzMzYuNzUgUTg2MS42MjUsMzM2Ljc1IDg2MS42MjUsMzM5LjU2MjUgTDg2My4zNzUsMzM5LjU2MjUgUTg2My4zNzUsMzM5LjU2MjUgODYzLjM3NSwzMzYuNzUgTDg2MS42MjUsMzM2Ljc1IFogTTg1Ny4zNzUsMzM3LjQzNzUgTDg2Mi4zMTI1LDMzNy40Mzc1IEw4NjIuMzEyNSwzMzUuNjg3NSBMODU3LjM3NSwzMzUuNjg3NSBMODU3LjM3NSwzMzcuNDM3NSBaICIgZmlsbD0iIzAwMDAwMCIvPjx0ZXh0IGZpbGw9IiMwMDAwMDAiIGZvbnQtZmFtaWx5PSJzYW5zLXNlcmlmIiBmb250LXNpemU9IjE0IiBsZW5ndGhBZGp1c3Q9InNwYWNpbmciIHRleHRMZW5ndGg9IjQ5IiB4PSI4ODAuMjUiIHk9IjM0Ni43NDIyIj5DbGllbnRlPC90ZXh0PjxsaW5lIHN0eWxlPSJzdHJva2U6IzE4MTgxODtzdHJva2Utd2lkdGg6MC41OyIgeDE9IjczNS41IiB4Mj0iMTA0MS41IiB5MT0iMzU3IiB5Mj0iMzU3Ii8+PHJlY3QgZmlsbD0ibm9uZSIgaGVpZ2h0PSI2IiBzdHlsZT0ic3Ryb2tlOiNDODI5MzA7c3Ryb2tlLXdpZHRoOjEuMDsiIHdpZHRoPSI2IiB4PSI3NDIuNSIgeT0iMzY2Ljk5MjIiLz48dGV4dCBmaWxsPSIjMDAwMDAwIiBmb250LWZhbWlseT0ic2Fucy1zZXJpZiIgZm9udC1zaXplPSIxNCIgbGVuZ3RoQWRqdXN0PSJzcGFjaW5nIiB0ZXh0TGVuZ3RoPSI5OSIgeD0iNzU0LjUiIHk9IjM3NC4yMzQ0Ij5ub21icmU6IFN0cmluZzwvdGV4dD48cmVjdCBmaWxsPSJub25lIiBoZWlnaHQ9IjYiIHN0eWxlPSJzdHJva2U6I0M4MjkzMDtzdHJva2Utd2lkdGg6MS4wOyIgd2lkdGg9IjYiIHg9Ijc0Mi41IiB5PSIzODEuOTc2NiIvPjx0ZXh0IGZpbGw9IiMwMDAwMDAiIGZvbnQtZmFtaWx5PSJzYW5zLXNlcmlmIiBmb250LXNpemU9IjE0IiBsZW5ndGhBZGp1c3Q9InNwYWNpbmciIHRleHRMZW5ndGg9Ijc3IiB4PSI3NTQuNSIgeT0iMzg5LjIxODgiPk5JVDogU3RyaW5nPC90ZXh0PjxyZWN0IGZpbGw9Im5vbmUiIGhlaWdodD0iNiIgc3R5bGU9InN0cm9rZTojQzgyOTMwO3N0cm9rZS13aWR0aDoxLjA7IiB3aWR0aD0iNiIgeD0iNzQyLjUiIHk9IjM5Ni45NjA5Ii8+PHRleHQgZmlsbD0iIzAwMDAwMCIgZm9udC1mYW1pbHk9InNhbnMtc2VyaWYiIGZvbnQtc2l6ZT0iMTQiIGxlbmd0aEFkanVzdD0ic3BhY2luZyIgdGV4dExlbmd0aD0iMTE5IiB4PSI3NTQuNSIgeT0iNDA0LjIwMzEiPmRpcmVjY2kmIzI0MztuOiBTdHJpbmc8L3RleHQ+PHJlY3QgZmlsbD0ibm9uZSIgaGVpZ2h0PSI2IiBzdHlsZT0ic3Ryb2tlOiNDODI5MzA7c3Ryb2tlLXdpZHRoOjEuMDsiIHdpZHRoPSI2IiB4PSI3NDIuNSIgeT0iNDExLjk0NTMiLz48dGV4dCBmaWxsPSIjMDAwMDAwIiBmb250LWZhbWlseT0ic2Fucy1zZXJpZiIgZm9udC1zaXplPSIxNCIgbGVuZ3RoQWRqdXN0PSJzcGFjaW5nIiB0ZXh0TGVuZ3RoPSIyMjQiIHg9Ijc1NC41IiB5PSI0MTkuMTg3NSI+aGlzdG9yaWFsRGVQZWRpZG9zOiBMaXN0Jmx0O1BlZGlkbyZndDs8L3RleHQ+PGxpbmUgc3R5bGU9InN0cm9rZTojMTgxODE4O3N0cm9rZS13aWR0aDowLjU7IiB4MT0iNzM1LjUiIHgyPSIxMDQxLjUiIHkxPSI0MjQuOTM3NSIgeTI9IjQyNC45Mzc1Ii8+PGVsbGlwc2UgY3g9Ijc0NS41IiBjeT0iNDM3LjkyOTciIGZpbGw9IiM4NEJFODQiIHJ4PSIzIiByeT0iMyIgc3R5bGU9InN0cm9rZTojMDM4MDQ4O3N0cm9rZS13aWR0aDoxLjA7Ii8+PHRleHQgZmlsbD0iIzAwMDAwMCIgZm9udC1mYW1pbHk9InNhbnMtc2VyaWYiIGZvbnQtc2l6ZT0iMTQiIGxlbmd0aEFkanVzdD0ic3BhY2luZyIgdGV4dExlbmd0aD0iMTE0IiB4PSI3NTQuNSIgeT0iNDQyLjE3MTkiPlVzdWFyaW9DbGllbnRlKCk8L3RleHQ+PGVsbGlwc2UgY3g9Ijc0NS41IiBjeT0iNDUyLjkxNDEiIGZpbGw9IiM4NEJFODQiIHJ4PSIzIiByeT0iMyIgc3R5bGU9InN0cm9rZTojMDM4MDQ4O3N0cm9rZS13aWR0aDoxLjA7Ii8+PHRleHQgZmlsbD0iIzAwMDAwMCIgZm9udC1mYW1pbHk9InNhbnMtc2VyaWYiIGZvbnQtc2l6ZT0iMTQiIGxlbmd0aEFkanVzdD0ic3BhY2luZyIgdGV4dExlbmd0aD0iMTM2IiB4PSI3NTQuNSIgeT0iNDU3LjE1NjMiPmdldE5vbWJyZSgpOiBTdHJpbmc8L3RleHQ+PGVsbGlwc2UgY3g9Ijc0NS41IiBjeT0iNDY3Ljg5ODQiIGZpbGw9IiM4NEJFODQiIHJ4PSIzIiByeT0iMyIgc3R5bGU9InN0cm9rZTojMDM4MDQ4O3N0cm9rZS13aWR0aDoxLjA7Ii8+PHRleHQgZmlsbD0iIzAwMDAwMCIgZm9udC1mYW1pbHk9InNhbnMtc2VyaWYiIGZvbnQtc2l6ZT0iMTQiIGxlbmd0aEFkanVzdD0ic3BhY2luZyIgdGV4dExlbmd0aD0iMjIxIiB4PSI3NTQuNSIgeT0iNDcyLjE0MDYiPnNldE5vbWJyZShub21icmU6IFN0cmluZyk6IHZvaWQ8L3RleHQ+PGVsbGlwc2UgY3g9Ijc0NS41IiBjeT0iNDgyLjg4MjgiIGZpbGw9IiM4NEJFODQiIHJ4PSIzIiByeT0iMyIgc3R5bGU9InN0cm9rZTojMDM4MDQ4O3N0cm9rZS13aWR0aDoxLjA7Ii8+PHRleHQgZmlsbD0iIzAwMDAwMCIgZm9udC1mYW1pbHk9InNhbnMtc2VyaWYiIGZvbnQtc2l6ZT0iMTQiIGxlbmd0aEFkanVzdD0ic3BhY2luZyIgdGV4dExlbmd0aD0iMTE0IiB4PSI3NTQuNSIgeT0iNDg3LjEyNSI+Z2V0TklUKCk6IFN0cmluZzwvdGV4dD48ZWxsaXBzZSBjeD0iNzQ1LjUiIGN5PSI0OTcuODY3MiIgZmlsbD0iIzg0QkU4NCIgcng9IjMiIHJ5PSIzIiBzdHlsZT0ic3Ryb2tlOiMwMzgwNDg7c3Ryb2tlLXdpZHRoOjEuMDsiLz48dGV4dCBmaWxsPSIjMDAwMDAwIiBmb250LWZhbWlseT0ic2Fucy1zZXJpZiIgZm9udC1zaXplPSIxNCIgbGVuZ3RoQWRqdXN0PSJzcGFjaW5nIiB0ZXh0TGVuZ3RoPSIxNzciIHg9Ijc1NC41IiB5PSI1MDIuMTA5NCI+c2V0TklUKE5JVDogU3RyaW5nKTogdm9pZDwvdGV4dD48ZWxsaXBzZSBjeD0iNzQ1LjUiIGN5PSI1MTIuODUxNiIgZmlsbD0iIzg0QkU4NCIgcng9IjMiIHJ5PSIzIiBzdHlsZT0ic3Ryb2tlOiMwMzgwNDg7c3Ryb2tlLXdpZHRoOjEuMDsiLz48dGV4dCBmaWxsPSIjMDAwMDAwIiBmb250LWZhbWlseT0ic2Fucy1zZXJpZiIgZm9udC1zaXplPSIxNCIgbGVuZ3RoQWRqdXN0PSJzcGFjaW5nIiB0ZXh0TGVuZ3RoPSIxNTYiIHg9Ijc1NC41IiB5PSI1MTcuMDkzOCI+Z2V0RGlyZWNjaSYjMjQzO24oKTogU3RyaW5nPC90ZXh0PjxlbGxpcHNlIGN4PSI3NDUuNSIgY3k9IjUyNy44MzU5IiBmaWxsPSIjODRCRTg0IiByeD0iMyIgcnk9IjMiIHN0eWxlPSJzdHJva2U6IzAzODA0ODtzdHJva2Utd2lkdGg6MS4wOyIvPjx0ZXh0IGZpbGw9IiMwMDAwMDAiIGZvbnQtZmFtaWx5PSJzYW5zLXNlcmlmIiBmb250LXNpemU9IjE0IiBsZW5ndGhBZGp1c3Q9InNwYWNpbmciIHRleHRMZW5ndGg9IjI2MSIgeD0iNzU0LjUiIHk9IjUzMi4wNzgxIj5zZXREaXJlY2NpJiMyNDM7bihkaXJlY2NpJiMyNDM7bjogU3RyaW5nKTogdm9pZDwvdGV4dD48ZWxsaXBzZSBjeD0iNzQ1LjUiIGN5PSI1NDIuODIwMyIgZmlsbD0iIzg0QkU4NCIgcng9IjMiIHJ5PSIzIiBzdHlsZT0ic3Ryb2tlOiMwMzgwNDg7c3Ryb2tlLXdpZHRoOjEuMDsiLz48dGV4dCBmaWxsPSIjMDAwMDAwIiBmb250LWZhbWlseT0ic2Fucy1zZXJpZiIgZm9udC1zaXplPSIxNCIgbGVuZ3RoQWRqdXN0PSJzcGFjaW5nIiB0ZXh0TGVuZ3RoPSIyODIiIHg9Ijc1NC41IiB5PSI1NDcuMDYyNSI+cmVhbGl6YXJQZWRpZG8odmVsYXM6IExpc3QmbHQ7VmVsYXMmZ3Q7KTogdm9pZDwvdGV4dD48ZWxsaXBzZSBjeD0iNzQ1LjUiIGN5PSI1NTcuODA0NyIgZmlsbD0iIzg0QkU4NCIgcng9IjMiIHJ5PSIzIiBzdHlsZT0ic3Ryb2tlOiMwMzgwNDg7c3Ryb2tlLXdpZHRoOjEuMDsiLz48dGV4dCBmaWxsPSIjMDAwMDAwIiBmb250LWZhbWlseT0ic2Fucy1zZXJpZiIgZm9udC1zaXplPSIxNCIgbGVuZ3RoQWRqdXN0PSJzcGFjaW5nIiB0ZXh0TGVuZ3RoPSIyNjEiIHg9Ijc1NC41IiB5PSI1NjIuMDQ2OSI+dmVySGlzdG9yaWFsRGVQZWRpZG9zKCk6IExpc3QmbHQ7UGVkaWRvJmd0OzwvdGV4dD48L2c+PCEtLWNsYXNzIEVzdGFkb0RlbFBlZGlkby0tPjxnIGlkPSJlbGVtX0VzdGFkb0RlbFBlZGlkbyI+PHJlY3QgY29kZUxpbmU9IjI1IiBmaWxsPSIjRjFGMUYxIiBoZWlnaHQ9IjEwNy45Mzc1IiBpZD0iRXN0YWRvRGVsUGVkaWRvIiByeD0iMi41IiByeT0iMi41IiBzdHlsZT0ic3Ryb2tlOiMxODE4MTg7c3Ryb2tlLXdpZHRoOjAuNTsiIHdpZHRoPSIxMzciIHg9IjQ4NSIgeT0iMzkyLjUiLz48ZWxsaXBzZSBjeD0iNTAwIiBjeT0iNDA4LjUiIGZpbGw9IiNBREQxQjIiIHJ4PSIxMSIgcnk9IjExIiBzdHlsZT0ic3Ryb2tlOiMxODE4MTg7c3Ryb2tlLXdpZHRoOjEuMDsiLz48cGF0aCBkPSJNNDk3LjYyNSw0MTIuNzUgTDQ5Ny42MjUsNDE0LjUgTDUwMi41NjI1LDQxNC41IEw1MDIuNTYyNSw0MTIuNzUgTDQ5Ny42MjUsNDEyLjc1IFogTTQ5OC4zMTI1LDQxMy40Mzc1IFE0OTguMzEyNSw0MTMuNDM3NSA0OTguMzEyNSw0MDQuMjUgTDQ5Ni41NjI1LDQwNC4yNSBRNDk2LjU2MjUsNDA0LjI1IDQ5Ni41NjI1LDQxMy40Mzc1IEw0OTguMzEyNSw0MTMuNDM3NSBaIE01MDEuODc1LDQxMy40Mzc1IEw1MDMuNjI1LDQxMy40Mzc1IFE1MDMuNjI1LDQxMy40Mzc1IDUwMy42MjUsNDEwLjYyNSBMNTAxLjg3NSw0MTAuNjI1IFE1MDEuODc1LDQxMC42MjUgNTAxLjg3NSw0MTMuNDM3NSBaIE01MDEuODc1LDQwNC4yNSBRNTAxLjg3NSw0MDQuMjUgNTAxLjg3NSw0MDcuMDYyNSBMNTAzLjYyNSw0MDcuMDYyNSBRNTAzLjYyNSw0MDcuMDYyNSA1MDMuNjI1LDQwNC4yNSBMNTAxLjg3NSw0MDQuMjUgWiBNNDk3LjYyNSw0MDQuOTM3NSBMNTAyLjU2MjUsNDA0LjkzNzUgTDUwMi41NjI1LDQwMy4xODc1IEw0OTcuNjI1LDQwMy4xODc1IEw0OTcuNjI1LDQwNC45Mzc1IFogIiBmaWxsPSIjMDAwMDAwIi8+PHRleHQgZmlsbD0iIzAwMDAwMCIgZm9udC1mYW1pbHk9InNhbnMtc2VyaWYiIGZvbnQtc2l6ZT0iMTQiIGxlbmd0aEFkanVzdD0ic3BhY2luZyIgdGV4dExlbmd0aD0iMTA1IiB4PSI1MTQiIHk9IjQxNC4yNDIyIj5Fc3RhZG9EZWxQZWRpZG88L3RleHQ+PGxpbmUgc3R5bGU9InN0cm9rZTojMTgxODE4O3N0cm9rZS13aWR0aDowLjU7IiB4MT0iNDg2IiB4Mj0iNjIxIiB5MT0iNDI0LjUiIHkyPSI0MjQuNSIvPjx0ZXh0IGZpbGw9IiMwMDAwMDAiIGZvbnQtZmFtaWx5PSJzYW5zLXNlcmlmIiBmb250LXNpemU9IjE0IiBsZW5ndGhBZGp1c3Q9InNwYWNpbmciIHRleHRMZW5ndGg9Ijg1IiB4PSI0OTEiIHk9IjQ0MS43MzQ0Ij5QZWRpZG9Ub21hZG88L3RleHQ+PHRleHQgZmlsbD0iIzAwMDAwMCIgZm9udC1mYW1pbHk9InNhbnMtc2VyaWYiIGZvbnQtc2l6ZT0iMTQiIGxlbmd0aEFkanVzdD0ic3BhY2luZyIgdGV4dExlbmd0aD0iNzAiIHg9IjQ5MSIgeT0iNDU2LjcxODgiPlRyYWJhamFuZG88L3RleHQ+PHRleHQgZmlsbD0iIzAwMDAwMCIgZm9udC1mYW1pbHk9InNhbnMtc2VyaWYiIGZvbnQtc2l6ZT0iMTQiIGxlbmd0aEFkanVzdD0ic3BhY2luZyIgdGV4dExlbmd0aD0iNDkiIHg9IjQ5MSIgeT0iNDcxLjcwMzEiPkVuRW52JiMyMzc7bzwvdGV4dD48dGV4dCBmaWxsPSIjMDAwMDAwIiBmb250LWZhbWlseT0ic2Fucy1zZXJpZiIgZm9udC1zaXplPSIxNCIgbGVuZ3RoQWRqdXN0PSJzcGFjaW5nIiB0ZXh0TGVuZ3RoPSI2MyIgeD0iNDkxIiB5PSI0ODYuNjg3NSI+RW50cmVnYWRvPC90ZXh0PjxsaW5lIHN0eWxlPSJzdHJva2U6IzE4MTgxODtzdHJva2Utd2lkdGg6MC41OyIgeDE9IjQ4NiIgeDI9IjYyMSIgeTE9IjQ5Mi40Mzc1IiB5Mj0iNDkyLjQzNzUiLz48L2c+PCEtLWNsYXNzIE1hdGVyaWFQcmltYS0tPjxnIGlkPSJlbGVtX01hdGVyaWFQcmltYSI+PHJlY3QgY29kZUxpbmU9IjMyIiBmaWxsPSIjRjFGMUYxIiBoZWlnaHQ9IjI3Mi43NjU2IiBpZD0iTWF0ZXJpYVByaW1hIiByeD0iMi41IiByeT0iMi41IiBzdHlsZT0ic3Ryb2tlOiMxODE4MTg7c3Ryb2tlLXdpZHRoOjAuNTsiIHdpZHRoPSIzMzYiIHg9IjE1NDIuNSIgeT0iMzEwIi8+PGVsbGlwc2UgY3g9IjE2NjMuNzUiIGN5PSIzMjYiIGZpbGw9IiNBREQxQjIiIHJ4PSIxMSIgcnk9IjExIiBzdHlsZT0ic3Ryb2tlOiMxODE4MTg7c3Ryb2tlLXdpZHRoOjEuMDsiLz48cGF0aCBkPSJNMTY2MS4zNzUsMzMwLjI1IEwxNjYxLjM3NSwzMzIgTDE2NjYuMzEyNSwzMzIgTDE2NjYuMzEyNSwzMzAuMjUgTDE2NjEuMzc1LDMzMC4yNSBaIE0xNjYyLjA2MjUsMzMwLjkzNzUgUTE2NjIuMDYyNSwzMzAuOTM3NSAxNjYyLjA2MjUsMzIxLjc1IEwxNjYwLjMxMjUsMzIxLjc1IFExNjYwLjMxMjUsMzIxLjc1IDE2NjAuMzEyNSwzMzAuOTM3NSBMMTY2Mi4wNjI1LDMzMC45Mzc1IFogTTE2NjUuNjI1LDMzMC45Mzc1IEwxNjY3LjM3NSwzMzAuOTM3NSBRMTY2Ny4zNzUsMzMwLjkzNzUgMTY2Ny4zNzUsMzI4LjEyNSBMMTY2NS42MjUsMzI4LjEyNSBRMTY2NS42MjUsMzI4LjEyNSAxNjY1LjYyNSwzMzAuOTM3NSBaIE0xNjY1LjYyNSwzMjEuNzUgUTE2NjUuNjI1LDMyMS43NSAxNjY1LjYyNSwzMjQuNTYyNSBMMTY2Ny4zNzUsMzI0LjU2MjUgUTE2NjcuMzc1LDMyNC41NjI1IDE2NjcuMzc1LDMyMS43NSBMMTY2NS42MjUsMzIxLjc1IFogTTE2NjEuMzc1LDMyMi40Mzc1IEwxNjY2LjMxMjUsMzIyLjQzNzUgTDE2NjYuMzEyNSwzMjAuNjg3NSBMMTY2MS4zNzUsMzIwLjY4NzUgTDE2NjEuMzc1LDMyMi40Mzc1IFogIiBmaWxsPSIjMDAwMDAwIi8+PHRleHQgZmlsbD0iIzAwMDAwMCIgZm9udC1mYW1pbHk9InNhbnMtc2VyaWYiIGZvbnQtc2l6ZT0iMTQiIGxlbmd0aEFkanVzdD0ic3BhY2luZyIgdGV4dExlbmd0aD0iODUiIHg9IjE2ODQuMjUiIHk9IjMzMS43NDIyIj5NYXRlcmlhUHJpbWE8L3RleHQ+PGxpbmUgc3R5bGU9InN0cm9rZTojMTgxODE4O3N0cm9rZS13aWR0aDowLjU7IiB4MT0iMTU0My41IiB4Mj0iMTg3Ny41IiB5MT0iMzQyIiB5Mj0iMzQyIi8+PHJlY3QgZmlsbD0ibm9uZSIgaGVpZ2h0PSI2IiBzdHlsZT0ic3Ryb2tlOiNDODI5MzA7c3Ryb2tlLXdpZHRoOjEuMDsiIHdpZHRoPSI2IiB4PSIxNTUwLjUiIHk9IjM1MS45OTIyIi8+PHRleHQgZmlsbD0iIzAwMDAwMCIgZm9udC1mYW1pbHk9InNhbnMtc2VyaWYiIGZvbnQtc2l6ZT0iMTQiIGxlbmd0aEFkanVzdD0ic3BhY2luZyIgdGV4dExlbmd0aD0iOTkiIHg9IjE1NjIuNSIgeT0iMzU5LjIzNDQiPm5vbWJyZTogU3RyaW5nPC90ZXh0PjxyZWN0IGZpbGw9Im5vbmUiIGhlaWdodD0iNiIgc3R5bGU9InN0cm9rZTojQzgyOTMwO3N0cm9rZS13aWR0aDoxLjA7IiB3aWR0aD0iNiIgeD0iMTU1MC41IiB5PSIzNjYuOTc2NiIvPjx0ZXh0IGZpbGw9IiMwMDAwMDAiIGZvbnQtZmFtaWx5PSJzYW5zLXNlcmlmIiBmb250LXNpemU9IjE0IiBsZW5ndGhBZGp1c3Q9InNwYWNpbmciIHRleHRMZW5ndGg9IjE2MSIgeD0iMTU2Mi41IiB5PSIzNzQuMjE4OCI+Y2FudGlkYWREaXNwb25pYmxlOiBpbnQ8L3RleHQ+PHJlY3QgZmlsbD0ibm9uZSIgaGVpZ2h0PSI2IiBzdHlsZT0ic3Ryb2tlOiNDODI5MzA7c3Ryb2tlLXdpZHRoOjEuMDsiIHdpZHRoPSI2IiB4PSIxNTUwLjUiIHk9IjM4MS45NjA5Ii8+PHRleHQgZmlsbD0iIzAwMDAwMCIgZm9udC1mYW1pbHk9InNhbnMtc2VyaWYiIGZvbnQtc2l6ZT0iMTQiIGxlbmd0aEFkanVzdD0ic3BhY2luZyIgdGV4dExlbmd0aD0iMTQwIiB4PSIxNTYyLjUiIHk9IjM4OS4yMDMxIj5wcm92ZWVkb3I6IFByb3ZlZWRvcjwvdGV4dD48cmVjdCBmaWxsPSJub25lIiBoZWlnaHQ9IjYiIHN0eWxlPSJzdHJva2U6I0M4MjkzMDtzdHJva2Utd2lkdGg6MS4wOyIgd2lkdGg9IjYiIHg9IjE1NTAuNSIgeT0iMzk2Ljk0NTMiLz48dGV4dCBmaWxsPSIjMDAwMDAwIiBmb250LWZhbWlseT0ic2Fucy1zZXJpZiIgZm9udC1zaXplPSIxNCIgbGVuZ3RoQWRqdXN0PSJzcGFjaW5nIiB0ZXh0TGVuZ3RoPSI5MSIgeD0iMTU2Mi41IiB5PSI0MDQuMTg3NSI+Y29zdG86IGRvdWJsZTwvdGV4dD48bGluZSBzdHlsZT0ic3Ryb2tlOiMxODE4MTg7c3Ryb2tlLXdpZHRoOjAuNTsiIHgxPSIxNTQzLjUiIHgyPSIxODc3LjUiIHkxPSI0MDkuOTM3NSIgeTI9IjQwOS45Mzc1Ii8+PGVsbGlwc2UgY3g9IjE1NTMuNSIgY3k9IjQyMi45Mjk3IiBmaWxsPSIjODRCRTg0IiByeD0iMyIgcnk9IjMiIHN0eWxlPSJzdHJva2U6IzAzODA0ODtzdHJva2Utd2lkdGg6MS4wOyIvPjx0ZXh0IGZpbGw9IiMwMDAwMDAiIGZvbnQtZmFtaWx5PSJzYW5zLXNlcmlmIiBmb250LXNpemU9IjE0IiBsZW5ndGhBZGp1c3Q9InNwYWNpbmciIHRleHRMZW5ndGg9IjEwMSIgeD0iMTU2Mi41IiB5PSI0MjcuMTcxOSI+TWF0ZXJpYVByaW1hKCk8L3RleHQ+PGVsbGlwc2UgY3g9IjE1NTMuNSIgY3k9IjQzNy45MTQxIiBmaWxsPSIjODRCRTg0IiByeD0iMyIgcnk9IjMiIHN0eWxlPSJzdHJva2U6IzAzODA0ODtzdHJva2Utd2lkdGg6MS4wOyIvPjx0ZXh0IGZpbGw9IiMwMDAwMDAiIGZvbnQtZmFtaWx5PSJzYW5zLXNlcmlmIiBmb250LXNpemU9IjE0IiBsZW5ndGhBZGp1c3Q9InNwYWNpbmciIHRleHRMZW5ndGg9IjEzNiIgeD0iMTU2Mi41IiB5PSI0NDIuMTU2MyI+Z2V0Tm9tYnJlKCk6IFN0cmluZzwvdGV4dD48ZWxsaXBzZSBjeD0iMTU1My41IiBjeT0iNDUyLjg5ODQiIGZpbGw9IiM4NEJFODQiIHJ4PSIzIiByeT0iMyIgc3R5bGU9InN0cm9rZTojMDM4MDQ4O3N0cm9rZS13aWR0aDoxLjA7Ii8+PHRleHQgZmlsbD0iIzAwMDAwMCIgZm9udC1mYW1pbHk9InNhbnMtc2VyaWYiIGZvbnQtc2l6ZT0iMTQiIGxlbmd0aEFkanVzdD0ic3BhY2luZyIgdGV4dExlbmd0aD0iMjIxIiB4PSIxNTYyLjUiIHk9IjQ1Ny4xNDA2Ij5zZXROb21icmUobm9tYnJlOiBTdHJpbmcpOiB2b2lkPC90ZXh0PjxlbGxpcHNlIGN4PSIxNTUzLjUiIGN5PSI0NjcuODgyOCIgZmlsbD0iIzg0QkU4NCIgcng9IjMiIHJ5PSIzIiBzdHlsZT0ic3Ryb2tlOiMwMzgwNDg7c3Ryb2tlLXdpZHRoOjEuMDsiLz48dGV4dCBmaWxsPSIjMDAwMDAwIiBmb250LWZhbWlseT0ic2Fucy1zZXJpZiIgZm9udC1zaXplPSIxNCIgbGVuZ3RoQWRqdXN0PSJzcGFjaW5nIiB0ZXh0TGVuZ3RoPSIxOTgiIHg9IjE1NjIuNSIgeT0iNDcyLjEyNSI+Z2V0Q2FudGlkYWREaXNwb25pYmxlKCk6IGludDwvdGV4dD48ZWxsaXBzZSBjeD0iMTU1My41IiBjeT0iNDgyLjg2NzIiIGZpbGw9IiM4NEJFODQiIHJ4PSIzIiByeT0iMyIgc3R5bGU9InN0cm9rZTojMDM4MDQ4O3N0cm9rZS13aWR0aDoxLjA7Ii8+PHRleHQgZmlsbD0iIzAwMDAwMCIgZm9udC1mYW1pbHk9InNhbnMtc2VyaWYiIGZvbnQtc2l6ZT0iMTQiIGxlbmd0aEFkanVzdD0ic3BhY2luZyIgdGV4dExlbmd0aD0iMjk2IiB4PSIxNTYyLjUiIHk9IjQ4Ny4xMDk0Ij5zZXRDYW50aWRhZERpc3BvbmlibGUoY2FudGlkYWQ6IGludCk6IHZvaWQ8L3RleHQ+PGVsbGlwc2UgY3g9IjE1NTMuNSIgY3k9IjQ5Ny44NTE2IiBmaWxsPSIjODRCRTg0IiByeD0iMyIgcnk9IjMiIHN0eWxlPSJzdHJva2U6IzAzODA0ODtzdHJva2Utd2lkdGg6MS4wOyIvPjx0ZXh0IGZpbGw9IiMwMDAwMDAiIGZvbnQtZmFtaWx5PSJzYW5zLXNlcmlmIiBmb250LXNpemU9IjE0IiBsZW5ndGhBZGp1c3Q9InNwYWNpbmciIHRleHRMZW5ndGg9IjE3NyIgeD0iMTU2Mi41IiB5PSI1MDIuMDkzOCI+Z2V0UHJvdmVlZG9yKCk6IFByb3ZlZWRvcjwvdGV4dD48ZWxsaXBzZSBjeD0iMTU1My41IiBjeT0iNTEyLjgzNTkiIGZpbGw9IiM4NEJFODQiIHJ4PSIzIiByeT0iMyIgc3R5bGU9InN0cm9rZTojMDM4MDQ4O3N0cm9rZS13aWR0aDoxLjA7Ii8+PHRleHQgZmlsbD0iIzAwMDAwMCIgZm9udC1mYW1pbHk9InNhbnMtc2VyaWYiIGZvbnQtc2l6ZT0iMTQiIGxlbmd0aEFkanVzdD0ic3BhY2luZyIgdGV4dExlbmd0aD0iMjgyIiB4PSIxNTYyLjUiIHk9IjUxNy4wNzgxIj5zZXRQcm92ZWVkb3IocHJvdmVlZG9yOiBQcm92ZWVkb3IpOiB2b2lkPC90ZXh0PjxlbGxpcHNlIGN4PSIxNTUzLjUiIGN5PSI1MjcuODIwMyIgZmlsbD0iIzg0QkU4NCIgcng9IjMiIHJ5PSIzIiBzdHlsZT0ic3Ryb2tlOiMwMzgwNDg7c3Ryb2tlLXdpZHRoOjEuMDsiLz48dGV4dCBmaWxsPSIjMDAwMDAwIiBmb250LWZhbWlseT0ic2Fucy1zZXJpZiIgZm9udC1zaXplPSIxNCIgbGVuZ3RoQWRqdXN0PSJzcGFjaW5nIiB0ZXh0TGVuZ3RoPSIxMjgiIHg9IjE1NjIuNSIgeT0iNTMyLjA2MjUiPmdldENvc3RvKCk6IGRvdWJsZTwvdGV4dD48ZWxsaXBzZSBjeD0iMTU1My41IiBjeT0iNTQyLjgwNDciIGZpbGw9IiM4NEJFODQiIHJ4PSIzIiByeT0iMyIgc3R5bGU9InN0cm9rZTojMDM4MDQ4O3N0cm9rZS13aWR0aDoxLjA7Ii8+PHRleHQgZmlsbD0iIzAwMDAwMCIgZm9udC1mYW1pbHk9InNhbnMtc2VyaWYiIGZvbnQtc2l6ZT0iMTQiIGxlbmd0aEFkanVzdD0ic3BhY2luZyIgdGV4dExlbmd0aD0iMjA1IiB4PSIxNTYyLjUiIHk9IjU0Ny4wNDY5Ij5zZXRDb3N0byhjb3N0bzogZG91YmxlKTogdm9pZDwvdGV4dD48ZWxsaXBzZSBjeD0iMTU1My41IiBjeT0iNTU3Ljc4OTEiIGZpbGw9IiM4NEJFODQiIHJ4PSIzIiByeT0iMyIgc3R5bGU9InN0cm9rZTojMDM4MDQ4O3N0cm9rZS13aWR0aDoxLjA7Ii8+PHRleHQgZmlsbD0iIzAwMDAwMCIgZm9udC1mYW1pbHk9InNhbnMtc2VyaWYiIGZvbnQtc2l6ZT0iMTQiIGxlbmd0aEFkanVzdD0ic3BhY2luZyIgdGV4dExlbmd0aD0iMzEwIiB4PSIxNTYyLjUiIHk9IjU2Mi4wMzEzIj5hY3R1YWxpemFyQ2FudGlkYWQobnVldmFDYW50aWRhZDogaW50KTogdm9pZDwvdGV4dD48ZWxsaXBzZSBjeD0iMTU1My41IiBjeT0iNTcyLjc3MzQiIGZpbGw9IiM4NEJFODQiIHJ4PSIzIiByeT0iMyIgc3R5bGU9InN0cm9rZTojMDM4MDQ4O3N0cm9rZS13aWR0aDoxLjA7Ii8+PHRleHQgZmlsbD0iIzAwMDAwMCIgZm9udC1mYW1pbHk9InNhbnMtc2VyaWYiIGZvbnQtc2l6ZT0iMTQiIGxlbmd0aEFkanVzdD0ic3BhY2luZyIgdGV4dExlbmd0aD0iMjg5IiB4PSIxNTYyLjUiIHk9IjU3Ny4wMTU2Ij5jYWxjdWxhckNvc3RvVG90YWwoY2FudGlkYWQ6IGludCk6IGRvdWJsZTwvdGV4dD48L2c+PCEtLWNsYXNzIFByb3ZlZWRvci0tPjxnIGlkPSJlbGVtX1Byb3ZlZWRvciI+PHJlY3QgY29kZUxpbmU9IjUwIiBmaWxsPSIjRjFGMUYxIiBoZWlnaHQ9IjEzNy45MDYzIiBpZD0iUHJvdmVlZG9yIiByeD0iMi41IiByeT0iMi41IiBzdHlsZT0ic3Ryb2tlOiMxODE4MTg7c3Ryb2tlLXdpZHRoOjAuNTsiIHdpZHRoPSI1MTUiIHg9IjE0NTMiIHk9IjQ0LjUiLz48ZWxsaXBzZSBjeD0iMTY3NC43NSIgY3k9IjYwLjUiIGZpbGw9IiNBREQxQjIiIHJ4PSIxMSIgcnk9IjExIiBzdHlsZT0ic3Ryb2tlOiMxODE4MTg7c3Ryb2tlLXdpZHRoOjEuMDsiLz48cGF0aCBkPSJNMTY3Mi4zNzUsNjQuNzUgTDE2NzIuMzc1LDY2LjUgTDE2NzcuMzEyNSw2Ni41IEwxNjc3LjMxMjUsNjQuNzUgTDE2NzIuMzc1LDY0Ljc1IFogTTE2NzMuMDYyNSw2NS40Mzc1IFExNjczLjA2MjUsNjUuNDM3NSAxNjczLjA2MjUsNTYuMjUgTDE2NzEuMzEyNSw1Ni4yNSBRMTY3MS4zMTI1LDU2LjI1IDE2NzEuMzEyNSw2NS40Mzc1IEwxNjczLjA2MjUsNjUuNDM3NSBaIE0xNjc2LjYyNSw2NS40Mzc1IEwxNjc4LjM3NSw2NS40Mzc1IFExNjc4LjM3NSw2NS40Mzc1IDE2NzguMzc1LDYyLjYyNSBMMTY3Ni42MjUsNjIuNjI1IFExNjc2LjYyNSw2Mi42MjUgMTY3Ni42MjUsNjUuNDM3NSBaIE0xNjc2LjYyNSw1Ni4yNSBRMTY3Ni42MjUsNTYuMjUgMTY3Ni42MjUsNTkuMDYyNSBMMTY3OC4zNzUsNTkuMDYyNSBRMTY3OC4zNzUsNTkuMDYyNSAxNjc4LjM3NSw1Ni4yNSBMMTY3Ni42MjUsNTYuMjUgWiBNMTY3Mi4zNzUsNTYuOTM3NSBMMTY3Ny4zMTI1LDU2LjkzNzUgTDE2NzcuMzEyNSw1NS4xODc1IEwxNjcyLjM3NSw1NS4xODc1IEwxNjcyLjM3NSw1Ni45Mzc1IFogIiBmaWxsPSIjMDAwMDAwIi8+PHRleHQgZmlsbD0iIzAwMDAwMCIgZm9udC1mYW1pbHk9InNhbnMtc2VyaWYiIGZvbnQtc2l6ZT0iMTQiIGxlbmd0aEFkanVzdD0ic3BhY2luZyIgdGV4dExlbmd0aD0iNjMiIHg9IjE2OTUuMjUiIHk9IjY2LjI0MjIiPlByb3ZlZWRvcjwvdGV4dD48bGluZSBzdHlsZT0ic3Ryb2tlOiMxODE4MTg7c3Ryb2tlLXdpZHRoOjAuNTsiIHgxPSIxNDU0IiB4Mj0iMTk2NyIgeTE9Ijc2LjUiIHkyPSI3Ni41Ii8+PHJlY3QgZmlsbD0ibm9uZSIgaGVpZ2h0PSI2IiBzdHlsZT0ic3Ryb2tlOiNDODI5MzA7c3Ryb2tlLXdpZHRoOjEuMDsiIHdpZHRoPSI2IiB4PSIxNDYxIiB5PSI4Ni40OTIyIi8+PHRleHQgZmlsbD0iIzAwMDAwMCIgZm9udC1mYW1pbHk9InNhbnMtc2VyaWYiIGZvbnQtc2l6ZT0iMTQiIGxlbmd0aEFkanVzdD0ic3BhY2luZyIgdGV4dExlbmd0aD0iMTYyIiB4PSIxNDczIiB5PSI5My43MzQ0Ij5ub21icmVQcm92ZWVkb3I6IFN0cmluZzwvdGV4dD48cmVjdCBmaWxsPSJub25lIiBoZWlnaHQ9IjYiIHN0eWxlPSJzdHJva2U6I0M4MjkzMDtzdHJva2Utd2lkdGg6MS4wOyIgd2lkdGg9IjYiIHg9IjE0NjEiIHk9IjEwMS40NzY2Ii8+PHRleHQgZmlsbD0iIzAwMDAwMCIgZm9udC1mYW1pbHk9InNhbnMtc2VyaWYiIGZvbnQtc2l6ZT0iMTQiIGxlbmd0aEFkanVzdD0ic3BhY2luZyIgdGV4dExlbmd0aD0iMjkwIiB4PSIxNDczIiB5PSIxMDguNzE4OCI+bWF0ZXJpYVByaW1hUXVlUHJvdmVlOiBMaXN0Jmx0O01hdGVyaWFQcmltYSZndDs8L3RleHQ+PGxpbmUgc3R5bGU9InN0cm9rZTojMTgxODE4O3N0cm9rZS13aWR0aDowLjU7IiB4MT0iMTQ1NCIgeDI9IjE5NjciIHkxPSIxMTQuNDY4OCIgeTI9IjExNC40Njg4Ii8+PGVsbGlwc2UgY3g9IjE0NjQiIGN5PSIxMjcuNDYwOSIgZmlsbD0iIzg0QkU4NCIgcng9IjMiIHJ5PSIzIiBzdHlsZT0ic3Ryb2tlOiMwMzgwNDg7c3Ryb2tlLXdpZHRoOjEuMDsiLz48dGV4dCBmaWxsPSIjMDAwMDAwIiBmb250LWZhbWlseT0ic2Fucy1zZXJpZiIgZm9udC1zaXplPSIxNCIgbGVuZ3RoQWRqdXN0PSJzcGFjaW5nIiB0ZXh0TGVuZ3RoPSI3OSIgeD0iMTQ3MyIgeT0iMTMxLjcwMzEiPlByb3ZlZWRvcigpPC90ZXh0PjxlbGxpcHNlIGN4PSIxNDY0IiBjeT0iMTQyLjQ0NTMiIGZpbGw9IiM4NEJFODQiIHJ4PSIzIiByeT0iMyIgc3R5bGU9InN0cm9rZTojMDM4MDQ4O3N0cm9rZS13aWR0aDoxLjA7Ii8+PHRleHQgZmlsbD0iIzAwMDAwMCIgZm9udC1mYW1pbHk9InNhbnMtc2VyaWYiIGZvbnQtc2l6ZT0iMTQiIGxlbmd0aEFkanVzdD0ic3BhY2luZyIgdGV4dExlbmd0aD0iMTk5IiB4PSIxNDczIiB5PSIxNDYuNjg3NSI+Z2V0Tm9tYnJlUHJvdmVlZG9yKCk6IFN0cmluZzwvdGV4dD48ZWxsaXBzZSBjeD0iMTQ2NCIgY3k9IjE1Ny40Mjk3IiBmaWxsPSIjODRCRTg0IiByeD0iMyIgcnk9IjMiIHN0eWxlPSJzdHJva2U6IzAzODA0ODtzdHJva2Utd2lkdGg6MS4wOyIvPjx0ZXh0IGZpbGw9IiMwMDAwMDAiIGZvbnQtZmFtaWx5PSJzYW5zLXNlcmlmIiBmb250LXNpemU9IjE0IiBsZW5ndGhBZGp1c3Q9InNwYWNpbmciIHRleHRMZW5ndGg9IjM0NyIgeD0iMTQ3MyIgeT0iMTYxLjY3MTkiPnNldE5vbWJyZVByb3ZlZWRvcihub21icmVQcm92ZWVkb3I6IFN0cmluZyk6IHZvaWQ8L3RleHQ+PGVsbGlwc2UgY3g9IjE0NjQiIGN5PSIxNzIuNDE0MSIgZmlsbD0iIzg0QkU4NCIgcng9IjMiIHJ5PSIzIiBzdHlsZT0ic3Ryb2tlOiMwMzgwNDg7c3Ryb2tlLXdpZHRoOjEuMDsiLz48dGV4dCBmaWxsPSIjMDAwMDAwIiBmb250LWZhbWlseT0ic2Fucy1zZXJpZiIgZm9udC1zaXplPSIxNCIgbGVuZ3RoQWRqdXN0PSJzcGFjaW5nIiB0ZXh0TGVuZ3RoPSI0ODkiIHg9IjE0NzMiIHk9IjE3Ni42NTYzIj52ZXJNYXRlcmlhUHJpbWEobWF0ZXJpYVByaW1hOiBNYXRlcmlhUHJpbWEsIG51ZXZhQ2FudGlkYWQ6IGludCk6IHZvaWQ8L3RleHQ+PC9nPjwhLS1jbGFzcyBWZWxhcy0tPjxnIGlkPSJlbGVtX1ZlbGFzIj48cmVjdCBjb2RlTGluZT0iNTkiIGZpbGw9IiNGMUYxRjEiIGhlaWdodD0iMzMyLjcwMzEiIGlkPSJWZWxhcyIgcng9IjIuNSIgcnk9IjIuNSIgc3R5bGU9InN0cm9rZTojMTgxODE4O3N0cm9rZS13aWR0aDowLjU7IiB3aWR0aD0iNDI5IiB4PSIxMDc4IiB5PSIyODAiLz48ZWxsaXBzZSBjeD0iMTI3MC43NSIgY3k9IjI5NiIgZmlsbD0iI0FERDFCMiIgcng9IjExIiByeT0iMTEiIHN0eWxlPSJzdHJva2U6IzE4MTgxODtzdHJva2Utd2lkdGg6MS4wOyIvPjxwYXRoIGQ9Ik0xMjY4LjM3NSwzMDAuMjUgTDEyNjguMzc1LDMwMiBMMTI3My4zMTI1LDMwMiBMMTI3My4zMTI1LDMwMC4yNSBMMTI2OC4zNzUsMzAwLjI1IFogTTEyNjkuMDYyNSwzMDAuOTM3NSBRMTI2OS4wNjI1LDMwMC45Mzc1IDEyNjkuMDYyNSwyOTEuNzUgTDEyNjcuMzEyNSwyOTEuNzUgUTEyNjcuMzEyNSwyOTEuNzUgMTI2Ny4zMTI1LDMwMC45Mzc1IEwxMjY5LjA2MjUsMzAwLjkzNzUgWiBNMTI3Mi42MjUsMzAwLjkzNzUgTDEyNzQuMzc1LDMwMC45Mzc1IFExMjc0LjM3NSwzMDAuOTM3NSAxMjc0LjM3NSwyOTguMTI1IEwxMjcyLjYyNSwyOTguMTI1IFExMjcyLjYyNSwyOTguMTI1IDEyNzIuNjI1LDMwMC45Mzc1IFogTTEyNzIuNjI1LDI5MS43NSBRMTI3Mi42MjUsMjkxLjc1IDEyNzIuNjI1LDI5NC41NjI1IEwxMjc0LjM3NSwyOTQuNTYyNSBRMTI3NC4zNzUsMjk0LjU2MjUgMTI3NC4zNzUsMjkxLjc1IEwxMjcyLjYyNSwyOTEuNzUgWiBNMTI2OC4zNzUsMjkyLjQzNzUgTDEyNzMuMzEyNSwyOTIuNDM3NSBMMTI3My4zMTI1LDI5MC42ODc1IEwxMjY4LjM3NSwyOTAuNjg3NSBMMTI2OC4zNzUsMjkyLjQzNzUgWiAiIGZpbGw9IiMwMDAwMDAiLz48dGV4dCBmaWxsPSIjMDAwMDAwIiBmb250LWZhbWlseT0ic2Fucy1zZXJpZiIgZm9udC1zaXplPSIxNCIgbGVuZ3RoQWRqdXN0PSJzcGFjaW5nIiB0ZXh0TGVuZ3RoPSIzNSIgeD0iMTI5MS4yNSIgeT0iMzAxLjc0MjIiPlZlbGFzPC90ZXh0PjxsaW5lIHN0eWxlPSJzdHJva2U6IzE4MTgxODtzdHJva2Utd2lkdGg6MC41OyIgeDE9IjEwNzkiIHgyPSIxNTA2IiB5MT0iMzEyIiB5Mj0iMzEyIi8+PHJlY3QgZmlsbD0ibm9uZSIgaGVpZ2h0PSI2IiBzdHlsZT0ic3Ryb2tlOiNDODI5MzA7c3Ryb2tlLXdpZHRoOjEuMDsiIHdpZHRoPSI2IiB4PSIxMDg2IiB5PSIzMjEuOTkyMiIvPjx0ZXh0IGZpbGw9IiMwMDAwMDAiIGZvbnQtZmFtaWx5PSJzYW5zLXNlcmlmIiBmb250LXNpemU9IjE0IiBsZW5ndGhBZGp1c3Q9InNwYWNpbmciIHRleHRMZW5ndGg9IjExOSIgeD0iMTA5OCIgeT0iMzI5LjIzNDQiPmNhdGVnb3ImIzIzNzthOiBTdHJpbmc8L3RleHQ+PHJlY3QgZmlsbD0ibm9uZSIgaGVpZ2h0PSI2IiBzdHlsZT0ic3Ryb2tlOiNDODI5MzA7c3Ryb2tlLXdpZHRoOjEuMDsiIHdpZHRoPSI2IiB4PSIxMDg2IiB5PSIzMzYuOTc2NiIvPjx0ZXh0IGZpbGw9IiMwMDAwMDAiIGZvbnQtZmFtaWx5PSJzYW5zLXNlcmlmIiBmb250LXNpemU9IjE0IiBsZW5ndGhBZGp1c3Q9InNwYWNpbmciIHRleHRMZW5ndGg9IjEyMCIgeD0iMTA5OCIgeT0iMzQ0LjIxODgiPnRlbXBvcmFkYTogU3RyaW5nPC90ZXh0PjxyZWN0IGZpbGw9Im5vbmUiIGhlaWdodD0iNiIgc3R5bGU9InN0cm9rZTojQzgyOTMwO3N0cm9rZS13aWR0aDoxLjA7IiB3aWR0aD0iNiIgeD0iMTA4NiIgeT0iMzUxLjk2MDkiLz48dGV4dCBmaWxsPSIjMDAwMDAwIiBmb250LWZhbWlseT0ic2Fucy1zZXJpZiIgZm9udC1zaXplPSIxNCIgbGVuZ3RoQWRqdXN0PSJzcGFjaW5nIiB0ZXh0TGVuZ3RoPSIxMDYiIHg9IjEwOTgiIHk9IjM1OS4yMDMxIj5udW1lcm9WZWxhOiBpbnQ8L3RleHQ+PHJlY3QgZmlsbD0ibm9uZSIgaGVpZ2h0PSI2IiBzdHlsZT0ic3Ryb2tlOiNDODI5MzA7c3Ryb2tlLXdpZHRoOjEuMDsiIHdpZHRoPSI2IiB4PSIxMDg2IiB5PSIzNjYuOTQ1MyIvPjx0ZXh0IGZpbGw9IiMwMDAwMDAiIGZvbnQtZmFtaWx5PSJzYW5zLXNlcmlmIiBmb250LXNpemU9IjE0IiBsZW5ndGhBZGp1c3Q9InNwYWNpbmciIHRleHRMZW5ndGg9Ijk4IiB4PSIxMDk4IiB5PSIzNzQuMTg3NSI+cHJlY2lvOiBkb3VibGU8L3RleHQ+PHJlY3QgZmlsbD0ibm9uZSIgaGVpZ2h0PSI2IiBzdHlsZT0ic3Ryb2tlOiNDODI5MzA7c3Ryb2tlLXdpZHRoOjEuMDsiIHdpZHRoPSI2IiB4PSIxMDg2IiB5PSIzODEuOTI5NyIvPjx0ZXh0IGZpbGw9IiMwMDAwMDAiIGZvbnQtZmFtaWx5PSJzYW5zLXNlcmlmIiBmb250LXNpemU9IjE0IiBsZW5ndGhBZGp1c3Q9InNwYWNpbmciIHRleHRMZW5ndGg9IjExMiIgeD0iMTA5OCIgeT0iMzg5LjE3MTkiPmV4aXN0ZW5jaWFzOiBpbnQ8L3RleHQ+PHJlY3QgZmlsbD0ibm9uZSIgaGVpZ2h0PSI2IiBzdHlsZT0ic3Ryb2tlOiNDODI5MzA7c3Ryb2tlLXdpZHRoOjEuMDsiIHdpZHRoPSI2IiB4PSIxMDg2IiB5PSIzOTYuOTE0MSIvPjx0ZXh0IGZpbGw9IiMwMDAwMDAiIGZvbnQtZmFtaWx5PSJzYW5zLXNlcmlmIiBmb250LXNpemU9IjE0IiBsZW5ndGhBZGp1c3Q9InNwYWNpbmciIHRleHRMZW5ndGg9IjE5MCIgeD0iMTA5OCIgeT0iNDA0LjE1NjMiPmNhbnRpZGFkTGFtaW5hVXNhZGE6IGRvdWJsZTwvdGV4dD48bGluZSBzdHlsZT0ic3Ryb2tlOiMxODE4MTg7c3Ryb2tlLXdpZHRoOjAuNTsiIHgxPSIxMDc5IiB4Mj0iMTUwNiIgeTE9IjQwOS45MDYzIiB5Mj0iNDA5LjkwNjMiLz48ZWxsaXBzZSBjeD0iMTA4OSIgY3k9IjQyMi44OTg0IiBmaWxsPSIjODRCRTg0IiByeD0iMyIgcnk9IjMiIHN0eWxlPSJzdHJva2U6IzAzODA0ODtzdHJva2Utd2lkdGg6MS4wOyIvPjx0ZXh0IGZpbGw9IiMwMDAwMDAiIGZvbnQtZmFtaWx5PSJzYW5zLXNlcmlmIiBmb250LXNpemU9IjE0IiBsZW5ndGhBZGp1c3Q9InNwYWNpbmciIHRleHRMZW5ndGg9IjUxIiB4PSIxMDk4IiB5PSI0MjcuMTQwNiI+VmVsYXMoKTwvdGV4dD48ZWxsaXBzZSBjeD0iMTA4OSIgY3k9IjQzNy44ODI4IiBmaWxsPSIjODRCRTg0IiByeD0iMyIgcnk9IjMiIHN0eWxlPSJzdHJva2U6IzAzODA0ODtzdHJva2Utd2lkdGg6MS4wOyIvPjx0ZXh0IGZpbGw9IiMwMDAwMDAiIGZvbnQtZmFtaWx5PSJzYW5zLXNlcmlmIiBmb250LXNpemU9IjE0IiBsZW5ndGhBZGp1c3Q9InNwYWNpbmciIHRleHRMZW5ndGg9IjE1NiIgeD0iMTA5OCIgeT0iNDQyLjEyNSI+Z2V0Q2F0ZWdvciYjMjM3O2EoKTogU3RyaW5nPC90ZXh0PjxlbGxpcHNlIGN4PSIxMDg5IiBjeT0iNDUyLjg2NzIiIGZpbGw9IiM4NEJFODQiIHJ4PSIzIiByeT0iMyIgc3R5bGU9InN0cm9rZTojMDM4MDQ4O3N0cm9rZS13aWR0aDoxLjA7Ii8+PHRleHQgZmlsbD0iIzAwMDAwMCIgZm9udC1mYW1pbHk9InNhbnMtc2VyaWYiIGZvbnQtc2l6ZT0iMTQiIGxlbmd0aEFkanVzdD0ic3BhY2luZyIgdGV4dExlbmd0aD0iMjYxIiB4PSIxMDk4IiB5PSI0NTcuMTA5NCI+c2V0Q2F0ZWdvciYjMjM3O2EoY2F0ZWdvciYjMjM3O2E6IFN0cmluZyk6IHZvaWQ8L3RleHQ+PGVsbGlwc2UgY3g9IjEwODkiIGN5PSI0NjcuODUxNiIgZmlsbD0iIzg0QkU4NCIgcng9IjMiIHJ5PSIzIiBzdHlsZT0ic3Ryb2tlOiMwMzgwNDg7c3Ryb2tlLXdpZHRoOjEuMDsiLz48dGV4dCBmaWxsPSIjMDAwMDAwIiBmb250LWZhbWlseT0ic2Fucy1zZXJpZiIgZm9udC1zaXplPSIxNCIgbGVuZ3RoQWRqdXN0PSJzcGFjaW5nIiB0ZXh0TGVuZ3RoPSIxNTciIHg9IjEwOTgiIHk9IjQ3Mi4wOTM4Ij5nZXRUZW1wb3JhZGEoKTogU3RyaW5nPC90ZXh0PjxlbGxpcHNlIGN4PSIxMDg5IiBjeT0iNDgyLjgzNTkiIGZpbGw9IiM4NEJFODQiIHJ4PSIzIiByeT0iMyIgc3R5bGU9InN0cm9rZTojMDM4MDQ4O3N0cm9rZS13aWR0aDoxLjA7Ii8+PHRleHQgZmlsbD0iIzAwMDAwMCIgZm9udC1mYW1pbHk9InNhbnMtc2VyaWYiIGZvbnQtc2l6ZT0iMTQiIGxlbmd0aEFkanVzdD0ic3BhY2luZyIgdGV4dExlbmd0aD0iMjYzIiB4PSIxMDk4IiB5PSI0ODcuMDc4MSI+c2V0VGVtcG9yYWRhKHRlbXBvcmFkYTogU3RyaW5nKTogdm9pZDwvdGV4dD48ZWxsaXBzZSBjeD0iMTA4OSIgY3k9IjQ5Ny44MjAzIiBmaWxsPSIjODRCRTg0IiByeD0iMyIgcnk9IjMiIHN0eWxlPSJzdHJva2U6IzAzODA0ODtzdHJva2Utd2lkdGg6MS4wOyIvPjx0ZXh0IGZpbGw9IiMwMDAwMDAiIGZvbnQtZmFtaWx5PSJzYW5zLXNlcmlmIiBmb250LXNpemU9IjE0IiBsZW5ndGhBZGp1c3Q9InNwYWNpbmciIHRleHRMZW5ndGg9IjE0MyIgeD0iMTA5OCIgeT0iNTAyLjA2MjUiPmdldE51bWVyb1ZlbGEoKTogaW50PC90ZXh0PjxlbGxpcHNlIGN4PSIxMDg5IiBjeT0iNTEyLjgwNDciIGZpbGw9IiM4NEJFODQiIHJ4PSIzIiByeT0iMyIgc3R5bGU9InN0cm9rZTojMDM4MDQ4O3N0cm9rZS13aWR0aDoxLjA7Ii8+PHRleHQgZmlsbD0iIzAwMDAwMCIgZm9udC1mYW1pbHk9InNhbnMtc2VyaWYiIGZvbnQtc2l6ZT0iMTQiIGxlbmd0aEFkanVzdD0ic3BhY2luZyIgdGV4dExlbmd0aD0iMjU2IiB4PSIxMDk4IiB5PSI1MTcuMDQ2OSI+c2V0TnVtZXJvVmVsYShudW1lcm9WZWxhOiBpbnQpOiB2b2lkPC90ZXh0PjxlbGxpcHNlIGN4PSIxMDg5IiBjeT0iNTI3Ljc4OTEiIGZpbGw9IiM4NEJFODQiIHJ4PSIzIiByeT0iMyIgc3R5bGU9InN0cm9rZTojMDM4MDQ4O3N0cm9rZS13aWR0aDoxLjA7Ii8+PHRleHQgZmlsbD0iIzAwMDAwMCIgZm9udC1mYW1pbHk9InNhbnMtc2VyaWYiIGZvbnQtc2l6ZT0iMTQiIGxlbmd0aEFkanVzdD0ic3BhY2luZyIgdGV4dExlbmd0aD0iMTM1IiB4PSIxMDk4IiB5PSI1MzIuMDMxMyI+Z2V0UHJlY2lvKCk6IGRvdWJsZTwvdGV4dD48ZWxsaXBzZSBjeD0iMTA4OSIgY3k9IjU0Mi43NzM0IiBmaWxsPSIjODRCRTg0IiByeD0iMyIgcnk9IjMiIHN0eWxlPSJzdHJva2U6IzAzODA0ODtzdHJva2Utd2lkdGg6MS4wOyIvPjx0ZXh0IGZpbGw9IiMwMDAwMDAiIGZvbnQtZmFtaWx5PSJzYW5zLXNlcmlmIiBmb250LXNpemU9IjE0IiBsZW5ndGhBZGp1c3Q9InNwYWNpbmciIHRleHRMZW5ndGg9IjIxOSIgeD0iMTA5OCIgeT0iNTQ3LjAxNTYiPnNldFByZWNpbyhwcmVjaW86IGRvdWJsZSk6IHZvaWQ8L3RleHQ+PGVsbGlwc2UgY3g9IjEwODkiIGN5PSI1NTcuNzU3OCIgZmlsbD0iIzg0QkU4NCIgcng9IjMiIHJ5PSIzIiBzdHlsZT0ic3Ryb2tlOiMwMzgwNDg7c3Ryb2tlLXdpZHRoOjEuMDsiLz48dGV4dCBmaWxsPSIjMDAwMDAwIiBmb250LWZhbWlseT0ic2Fucy1zZXJpZiIgZm9udC1zaXplPSIxNCIgbGVuZ3RoQWRqdXN0PSJzcGFjaW5nIiB0ZXh0TGVuZ3RoPSIxNDkiIHg9IjEwOTgiIHk9IjU2MiI+Z2V0RXhpc3RlbmNpYXMoKTogaW50PC90ZXh0PjxlbGxpcHNlIGN4PSIxMDg5IiBjeT0iNTcyLjc0MjIiIGZpbGw9IiM4NEJFODQiIHJ4PSIzIiByeT0iMyIgc3R5bGU9InN0cm9rZTojMDM4MDQ4O3N0cm9rZS13aWR0aDoxLjA7Ii8+PHRleHQgZmlsbD0iIzAwMDAwMCIgZm9udC1mYW1pbHk9InNhbnMtc2VyaWYiIGZvbnQtc2l6ZT0iMTQiIGxlbmd0aEFkanVzdD0ic3BhY2luZyIgdGV4dExlbmd0aD0iMjY4IiB4PSIxMDk4IiB5PSI1NzYuOTg0NCI+c2V0RXhpc3RlbmNpYXMoZXhpc3RlbmNpYXM6IGludCk6IHZvaWQ8L3RleHQ+PGVsbGlwc2UgY3g9IjEwODkiIGN5PSI1ODcuNzI2NiIgZmlsbD0iIzg0QkU4NCIgcng9IjMiIHJ5PSIzIiBzdHlsZT0ic3Ryb2tlOiMwMzgwNDg7c3Ryb2tlLXdpZHRoOjEuMDsiLz48dGV4dCBmaWxsPSIjMDAwMDAwIiBmb250LWZhbWlseT0ic2Fucy1zZXJpZiIgZm9udC1zaXplPSIxNCIgbGVuZ3RoQWRqdXN0PSJzcGFjaW5nIiB0ZXh0TGVuZ3RoPSIyMjciIHg9IjEwOTgiIHk9IjU5MS45Njg4Ij5nZXRDYW50aWRhZExhbWluYVVzYWRhKCk6IGRvdWJsZTwvdGV4dD48ZWxsaXBzZSBjeD0iMTA4OSIgY3k9IjYwMi43MTA5IiBmaWxsPSIjODRCRTg0IiByeD0iMyIgcnk9IjMiIHN0eWxlPSJzdHJva2U6IzAzODA0ODtzdHJva2Utd2lkdGg6MS4wOyIvPjx0ZXh0IGZpbGw9IiMwMDAwMDAiIGZvbnQtZmFtaWx5PSJzYW5zLXNlcmlmIiBmb250LXNpemU9IjE0IiBsZW5ndGhBZGp1c3Q9InNwYWNpbmciIHRleHRMZW5ndGg9IjQwMyIgeD0iMTA5OCIgeT0iNjA2Ljk1MzEiPnNldENhbnRpZGFkTGFtaW5hVXNhZGEoY2FudGlkYWRMYW1pbmFVc2FkYTogZG91YmxlKTogdm9pZDwvdGV4dD48L2c+PCEtLWNsYXNzIFBlZGlkby0tPjxnIGlkPSJlbGVtX1BlZGlkbyI+PHJlY3QgY29kZUxpbmU9IjgxIiBmaWxsPSIjRjFGMUYxIiBoZWlnaHQ9IjIxMi44MjgxIiBpZD0iUGVkaWRvIiByeD0iMi41IiByeT0iMi41IiBzdHlsZT0ic3Ryb2tlOiMxODE4MTg7c3Ryb2tlLXdpZHRoOjAuNTsiIHdpZHRoPSI0MzQiIHg9IjcwMC41IiB5PSI3Ii8+PGVsbGlwc2UgY3g9Ijg5Mi4yNSIgY3k9IjIzIiBmaWxsPSIjQUREMUIyIiByeD0iMTEiIHJ5PSIxMSIgc3R5bGU9InN0cm9rZTojMTgxODE4O3N0cm9rZS13aWR0aDoxLjA7Ii8+PHBhdGggZD0iTTg4OS44NzUsMjcuMjUgTDg4OS44NzUsMjkgTDg5NC44MTI1LDI5IEw4OTQuODEyNSwyNy4yNSBMODg5Ljg3NSwyNy4yNSBaIE04OTAuNTYyNSwyNy45Mzc1IFE4OTAuNTYyNSwyNy45Mzc1IDg5MC41NjI1LDE4Ljc1IEw4ODguODEyNSwxOC43NSBRODg4LjgxMjUsMTguNzUgODg4LjgxMjUsMjcuOTM3NSBMODkwLjU2MjUsMjcuOTM3NSBaIE04OTQuMTI1LDI3LjkzNzUgTDg5NS44NzUsMjcuOTM3NSBRODk1Ljg3NSwyNy45Mzc1IDg5NS44NzUsMjUuMTI1IEw4OTQuMTI1LDI1LjEyNSBRODk0LjEyNSwyNS4xMjUgODk0LjEyNSwyNy45Mzc1IFogTTg5NC4xMjUsMTguNzUgUTg5NC4xMjUsMTguNzUgODk0LjEyNSwyMS41NjI1IEw4OTUuODc1LDIxLjU2MjUgUTg5NS44NzUsMjEuNTYyNSA4OTUuODc1LDE4Ljc1IEw4OTQuMTI1LDE4Ljc1IFogTTg4OS44NzUsMTkuNDM3NSBMODk0LjgxMjUsMTkuNDM3NSBMODk0LjgxMjUsMTcuNjg3NSBMODg5Ljg3NSwxNy42ODc1IEw4ODkuODc1LDE5LjQzNzUgWiAiIGZpbGw9IiMwMDAwMDAiLz48dGV4dCBmaWxsPSIjMDAwMDAwIiBmb250LWZhbWlseT0ic2Fucy1zZXJpZiIgZm9udC1zaXplPSIxNCIgbGVuZ3RoQWRqdXN0PSJzcGFjaW5nIiB0ZXh0TGVuZ3RoPSI0MiIgeD0iOTEyLjc1IiB5PSIyOC43NDIyIj5QZWRpZG88L3RleHQ+PGxpbmUgc3R5bGU9InN0cm9rZTojMTgxODE4O3N0cm9rZS13aWR0aDowLjU7IiB4MT0iNzAxLjUiIHgyPSIxMTMzLjUiIHkxPSIzOSIgeTI9IjM5Ii8+PHJlY3QgZmlsbD0ibm9uZSIgaGVpZ2h0PSI2IiBzdHlsZT0ic3Ryb2tlOiNDODI5MzA7c3Ryb2tlLXdpZHRoOjEuMDsiIHdpZHRoPSI2IiB4PSI3MDguNSIgeT0iNDguOTkyMiIvPjx0ZXh0IGZpbGw9IiMwMDAwMDAiIGZvbnQtZmFtaWx5PSJzYW5zLXNlcmlmIiBmb250LXNpemU9IjE0IiBsZW5ndGhBZGp1c3Q9InNwYWNpbmciIHRleHRMZW5ndGg9IjEyNiIgeD0iNzIwLjUiIHk9IjU2LjIzNDQiPnZlbGFzOiBMaXN0Jmx0O1ZlbGFzJmd0OzwvdGV4dD48cmVjdCBmaWxsPSJub25lIiBoZWlnaHQ9IjYiIHN0eWxlPSJzdHJva2U6I0M4MjkzMDtzdHJva2Utd2lkdGg6MS4wOyIgd2lkdGg9IjYiIHg9IjcwOC41IiB5PSI2My45NzY2Ii8+PHRleHQgZmlsbD0iIzAwMDAwMCIgZm9udC1mYW1pbHk9InNhbnMtc2VyaWYiIGZvbnQtc2l6ZT0iMTQiIGxlbmd0aEFkanVzdD0ic3BhY2luZyIgdGV4dExlbmd0aD0iMTYxIiB4PSI3MjAuNSIgeT0iNzEuMjE4OCI+dXN1YXJpbzogVXN1YXJpb0NsaWVudGU8L3RleHQ+PHJlY3QgZmlsbD0ibm9uZSIgaGVpZ2h0PSI2IiBzdHlsZT0ic3Ryb2tlOiNDODI5MzA7c3Ryb2tlLXdpZHRoOjEuMDsiIHdpZHRoPSI2IiB4PSI3MDguNSIgeT0iNzguOTYwOSIvPjx0ZXh0IGZpbGw9IiMwMDAwMDAiIGZvbnQtZmFtaWx5PSJzYW5zLXNlcmlmIiBmb250LXNpemU9IjE0IiBsZW5ndGhBZGp1c3Q9InNwYWNpbmciIHRleHRMZW5ndGg9IjIyNCIgeD0iNzIwLjUiIHk9Ijg2LjIwMzEiPmVzdGFkb0RlbFBlZGlkbzogRXN0YWRvRGVsUGVkaWRvPC90ZXh0PjxsaW5lIHN0eWxlPSJzdHJva2U6IzE4MTgxODtzdHJva2Utd2lkdGg6MC41OyIgeDE9IjcwMS41IiB4Mj0iMTEzMy41IiB5MT0iOTEuOTUzMSIgeTI9IjkxLjk1MzEiLz48ZWxsaXBzZSBjeD0iNzExLjUiIGN5PSIxMDQuOTQ1MyIgZmlsbD0iIzg0QkU4NCIgcng9IjMiIHJ5PSIzIiBzdHlsZT0ic3Ryb2tlOiMwMzgwNDg7c3Ryb2tlLXdpZHRoOjEuMDsiLz48dGV4dCBmaWxsPSIjMDAwMDAwIiBmb250LWZhbWlseT0ic2Fucy1zZXJpZiIgZm9udC1zaXplPSIxNCIgbGVuZ3RoQWRqdXN0PSJzcGFjaW5nIiB0ZXh0TGVuZ3RoPSI1OCIgeD0iNzIwLjUiIHk9IjEwOS4xODc1Ij5QZWRpZG8oKTwvdGV4dD48ZWxsaXBzZSBjeD0iNzExLjUiIGN5PSIxMTkuOTI5NyIgZmlsbD0iIzg0QkU4NCIgcng9IjMiIHJ5PSIzIiBzdHlsZT0ic3Ryb2tlOiMwMzgwNDg7c3Ryb2tlLXdpZHRoOjEuMDsiLz48dGV4dCBmaWxsPSIjMDAwMDAwIiBmb250LWZhbWlseT0ic2Fucy1zZXJpZiIgZm9udC1zaXplPSIxNCIgbGVuZ3RoQWRqdXN0PSJzcGFjaW5nIiB0ZXh0TGVuZ3RoPSIxNjMiIHg9IjcyMC41IiB5PSIxMjQuMTcxOSI+Z2V0VmVsYXMoKTogTGlzdCZsdDtWZWxhcyZndDs8L3RleHQ+PGVsbGlwc2UgY3g9IjcxMS41IiBjeT0iMTM0LjkxNDEiIGZpbGw9IiM4NEJFODQiIHJ4PSIzIiByeT0iMyIgc3R5bGU9InN0cm9rZTojMDM4MDQ4O3N0cm9rZS13aWR0aDoxLjA7Ii8+PHRleHQgZmlsbD0iIzAwMDAwMCIgZm9udC1mYW1pbHk9InNhbnMtc2VyaWYiIGZvbnQtc2l6ZT0iMTQiIGxlbmd0aEFkanVzdD0ic3BhY2luZyIgdGV4dExlbmd0aD0iMjQwIiB4PSI3MjAuNSIgeT0iMTM5LjE1NjMiPnNldFZlbGFzKHZlbGFzOiBMaXN0Jmx0O1ZlbGFzJmd0Oyk6IHZvaWQ8L3RleHQ+PGVsbGlwc2UgY3g9IjcxMS41IiBjeT0iMTQ5Ljg5ODQiIGZpbGw9IiM4NEJFODQiIHJ4PSIzIiByeT0iMyIgc3R5bGU9InN0cm9rZTojMDM4MDQ4O3N0cm9rZS13aWR0aDoxLjA7Ii8+PHRleHQgZmlsbD0iIzAwMDAwMCIgZm9udC1mYW1pbHk9InNhbnMtc2VyaWYiIGZvbnQtc2l6ZT0iMTQiIGxlbmd0aEFkanVzdD0ic3BhY2luZyIgdGV4dExlbmd0aD0iMTk4IiB4PSI3MjAuNSIgeT0iMTU0LjE0MDYiPmdldFVzdWFyaW8oKTogVXN1YXJpb0NsaWVudGU8L3RleHQ+PGVsbGlwc2UgY3g9IjcxMS41IiBjeT0iMTY0Ljg4MjgiIGZpbGw9IiM4NEJFODQiIHJ4PSIzIiByeT0iMyIgc3R5bGU9InN0cm9rZTojMDM4MDQ4O3N0cm9rZS13aWR0aDoxLjA7Ii8+PHRleHQgZmlsbD0iIzAwMDAwMCIgZm9udC1mYW1pbHk9InNhbnMtc2VyaWYiIGZvbnQtc2l6ZT0iMTQiIGxlbmd0aEFkanVzdD0ic3BhY2luZyIgdGV4dExlbmd0aD0iMjg5IiB4PSI3MjAuNSIgeT0iMTY5LjEyNSI+c2V0VXN1YXJpbyh1c3VhcmlvOiBVc3VhcmlvQ2xpZW50ZSk6IHZvaWQ8L3RleHQ+PGVsbGlwc2UgY3g9IjcxMS41IiBjeT0iMTc5Ljg2NzIiIGZpbGw9IiM4NEJFODQiIHJ4PSIzIiByeT0iMyIgc3R5bGU9InN0cm9rZTojMDM4MDQ4O3N0cm9rZS13aWR0aDoxLjA7Ii8+PHRleHQgZmlsbD0iIzAwMDAwMCIgZm9udC1mYW1pbHk9InNhbnMtc2VyaWYiIGZvbnQtc2l6ZT0iMTQiIGxlbmd0aEFkanVzdD0ic3BhY2luZyIgdGV4dExlbmd0aD0iMjYxIiB4PSI3MjAuNSIgeT0iMTg0LjEwOTQiPmdldEVzdGFkb0RlbFBlZGlkbygpOiBFc3RhZG9EZWxQZWRpZG88L3RleHQ+PGVsbGlwc2UgY3g9IjcxMS41IiBjeT0iMTk0Ljg1MTYiIGZpbGw9IiM4NEJFODQiIHJ4PSIzIiByeT0iMyIgc3R5bGU9InN0cm9rZTojMDM4MDQ4O3N0cm9rZS13aWR0aDoxLjA7Ii8+PHRleHQgZmlsbD0iIzAwMDAwMCIgZm9udC1mYW1pbHk9InNhbnMtc2VyaWYiIGZvbnQtc2l6ZT0iMTQiIGxlbmd0aEFkanVzdD0ic3BhY2luZyIgdGV4dExlbmd0aD0iNDA4IiB4PSI3MjAuNSIgeT0iMTk5LjA5MzgiPnNldEVzdGFkb0RlbFBlZGlkbyhlc3RhZG9EZWxQZWRpZG86IEVzdGFkb0RlbFBlZGlkbyk6IHZvaWQ8L3RleHQ+PGVsbGlwc2UgY3g9IjcxMS41IiBjeT0iMjA5LjgzNTkiIGZpbGw9IiM4NEJFODQiIHJ4PSIzIiByeT0iMyIgc3R5bGU9InN0cm9rZTojMDM4MDQ4O3N0cm9rZS13aWR0aDoxLjA7Ii8+PHRleHQgZmlsbD0iIzAwMDAwMCIgZm9udC1mYW1pbHk9InNhbnMtc2VyaWYiIGZvbnQtc2l6ZT0iMTQiIGxlbmd0aEFkanVzdD0ic3BhY2luZyIgdGV4dExlbmd0aD0iMzY2IiB4PSI3MjAuNSIgeT0iMjE0LjA3ODEiPmFjdHVhbGl6YXJFc3RhZG8obnVldm9Fc3RhZG86IEVzdGFkb0RlbFBlZGlkbyk6IHZvaWQ8L3RleHQ+PC9nPjwhLS1jbGFzcyBFbXByZXNhRGVNZW5zYWplcj9hLS0+PGcgaWQ9ImVsZW1fRW1wcmVzYURlTWVuc2FqZXImIzIzNzthIj48cmVjdCBjb2RlTGluZT0iOTUiIGZpbGw9IiNGMUYxRjEiIGhlaWdodD0iMTUyLjg5MDYiIGlkPSJFbXByZXNhRGVNZW5zYWplciYjMjM3O2EiIHJ4PSIyLjUiIHJ5PSIyLjUiIHN0eWxlPSJzdHJva2U6IzE4MTgxODtzdHJva2Utd2lkdGg6MC41OyIgd2lkdGg9IjQzNCIgeD0iMjMxLjUiIHk9IjM3Ii8+PGVsbGlwc2UgY3g9IjM3Ny4yNSIgY3k9IjUzIiBmaWxsPSIjQUREMUIyIiByeD0iMTEiIHJ5PSIxMSIgc3R5bGU9InN0cm9rZTojMTgxODE4O3N0cm9rZS13aWR0aDoxLjA7Ii8+PHBhdGggZD0iTTM3NC44NzUsNTcuMjUgTDM3NC44NzUsNTkgTDM3OS44MTI1LDU5IEwzNzkuODEyNSw1Ny4yNSBMMzc0Ljg3NSw1Ny4yNSBaIE0zNzUuNTYyNSw1Ny45Mzc1IFEzNzUuNTYyNSw1Ny45Mzc1IDM3NS41NjI1LDQ4Ljc1IEwzNzMuODEyNSw0OC43NSBRMzczLjgxMjUsNDguNzUgMzczLjgxMjUsNTcuOTM3NSBMMzc1LjU2MjUsNTcuOTM3NSBaIE0zNzkuMTI1LDU3LjkzNzUgTDM4MC44NzUsNTcuOTM3NSBRMzgwLjg3NSw1Ny45Mzc1IDM4MC44NzUsNTUuMTI1IEwzNzkuMTI1LDU1LjEyNSBRMzc5LjEyNSw1NS4xMjUgMzc5LjEyNSw1Ny45Mzc1IFogTTM3OS4xMjUsNDguNzUgUTM3OS4xMjUsNDguNzUgMzc5LjEyNSw1MS41NjI1IEwzODAuODc1LDUxLjU2MjUgUTM4MC44NzUsNTEuNTYyNSAzODAuODc1LDQ4Ljc1IEwzNzkuMTI1LDQ4Ljc1IFogTTM3NC44NzUsNDkuNDM3NSBMMzc5LjgxMjUsNDkuNDM3NSBMMzc5LjgxMjUsNDcuNjg3NSBMMzc0Ljg3NSw0Ny42ODc1IEwzNzQuODc1LDQ5LjQzNzUgWiAiIGZpbGw9IiMwMDAwMDAiLz48dGV4dCBmaWxsPSIjMDAwMDAwIiBmb250LWZhbWlseT0ic2Fucy1zZXJpZiIgZm9udC1zaXplPSIxNCIgbGVuZ3RoQWRqdXN0PSJzcGFjaW5nIiB0ZXh0TGVuZ3RoPSIxMzQiIHg9IjM5Ny43NSIgeT0iNTguNzQyMiI+RW1wcmVzYURlTWVuc2FqZXImIzIzNzthPC90ZXh0PjxsaW5lIHN0eWxlPSJzdHJva2U6IzE4MTgxODtzdHJva2Utd2lkdGg6MC41OyIgeDE9IjIzMi41IiB4Mj0iNjY0LjUiIHkxPSI2OSIgeTI9IjY5Ii8+PHJlY3QgZmlsbD0ibm9uZSIgaGVpZ2h0PSI2IiBzdHlsZT0ic3Ryb2tlOiNDODI5MzA7c3Ryb2tlLXdpZHRoOjEuMDsiIHdpZHRoPSI2IiB4PSIyMzkuNSIgeT0iNzguOTkyMiIvPjx0ZXh0IGZpbGw9IiMwMDAwMDAiIGZvbnQtZmFtaWx5PSJzYW5zLXNlcmlmIiBmb250LXNpemU9IjE0IiBsZW5ndGhBZGp1c3Q9InNwYWNpbmciIHRleHRMZW5ndGg9IjE4MyIgeD0iMjUxLjUiIHk9Ijg2LjIzNDQiPmZlY2hhRXN0aW1hZGFEZUVudmlvOiBEYXRlPC90ZXh0PjxyZWN0IGZpbGw9Im5vbmUiIGhlaWdodD0iNiIgc3R5bGU9InN0cm9rZTojQzgyOTMwO3N0cm9rZS13aWR0aDoxLjA7IiB3aWR0aD0iNiIgeD0iMjM5LjUiIHk9IjkzLjk3NjYiLz48dGV4dCBmaWxsPSIjMDAwMDAwIiBmb250LWZhbWlseT0ic2Fucy1zZXJpZiIgZm9udC1zaXplPSIxNCIgbGVuZ3RoQWRqdXN0PSJzcGFjaW5nIiB0ZXh0TGVuZ3RoPSIyMjQiIHg9IjI1MS41IiB5PSIxMDEuMjE4OCI+ZXN0YWRvRGVsUGVkaWRvOiBFc3RhZG9EZWxQZWRpZG88L3RleHQ+PGxpbmUgc3R5bGU9InN0cm9rZTojMTgxODE4O3N0cm9rZS13aWR0aDowLjU7IiB4MT0iMjMyLjUiIHgyPSI2NjQuNSIgeTE9IjEwNi45Njg4IiB5Mj0iMTA2Ljk2ODgiLz48ZWxsaXBzZSBjeD0iMjQyLjUiIGN5PSIxMTkuOTYwOSIgZmlsbD0iIzg0QkU4NCIgcng9IjMiIHJ5PSIzIiBzdHlsZT0ic3Ryb2tlOiMwMzgwNDg7c3Ryb2tlLXdpZHRoOjEuMDsiLz48dGV4dCBmaWxsPSIjMDAwMDAwIiBmb250LWZhbWlseT0ic2Fucy1zZXJpZiIgZm9udC1zaXplPSIxNCIgbGVuZ3RoQWRqdXN0PSJzcGFjaW5nIiB0ZXh0TGVuZ3RoPSIxNTAiIHg9IjI1MS41IiB5PSIxMjQuMjAzMSI+RW1wcmVzYURlTWVuc2FqZXImIzIzNzthKCk8L3RleHQ+PGVsbGlwc2UgY3g9IjI0Mi41IiBjeT0iMTM0Ljk0NTMiIGZpbGw9IiM4NEJFODQiIHJ4PSIzIiByeT0iMyIgc3R5bGU9InN0cm9rZTojMDM4MDQ4O3N0cm9rZS13aWR0aDoxLjA7Ii8+PHRleHQgZmlsbD0iIzAwMDAwMCIgZm9udC1mYW1pbHk9InNhbnMtc2VyaWYiIGZvbnQtc2l6ZT0iMTQiIGxlbmd0aEFkanVzdD0ic3BhY2luZyIgdGV4dExlbmd0aD0iMjIwIiB4PSIyNTEuNSIgeT0iMTM5LjE4NzUiPmdldEZlY2hhRXN0aW1hZGFEZUVudmlvKCk6IERhdGU8L3RleHQ+PGVsbGlwc2UgY3g9IjI0Mi41IiBjeT0iMTQ5LjkyOTciIGZpbGw9IiM4NEJFODQiIHJ4PSIzIiByeT0iMyIgc3R5bGU9InN0cm9rZTojMDM4MDQ4O3N0cm9rZS13aWR0aDoxLjA7Ii8+PHRleHQgZmlsbD0iIzAwMDAwMCIgZm9udC1mYW1pbHk9InNhbnMtc2VyaWYiIGZvbnQtc2l6ZT0iMTQiIGxlbmd0aEFkanVzdD0ic3BhY2luZyIgdGV4dExlbmd0aD0iNDAzIiB4PSIyNTEuNSIgeT0iMTU0LjE3MTkiPnNldEZlY2hhRXN0aW1hZGFEZUVudmlvKGZlY2hhRXN0aW1hZGFEZUVudmlvOiBEYXRlKTogdm9pZDwvdGV4dD48ZWxsaXBzZSBjeD0iMjQyLjUiIGN5PSIxNjQuOTE0MSIgZmlsbD0iIzg0QkU4NCIgcng9IjMiIHJ5PSIzIiBzdHlsZT0ic3Ryb2tlOiMwMzgwNDg7c3Ryb2tlLXdpZHRoOjEuMDsiLz48dGV4dCBmaWxsPSIjMDAwMDAwIiBmb250LWZhbWlseT0ic2Fucy1zZXJpZiIgZm9udC1zaXplPSIxNCIgbGVuZ3RoQWRqdXN0PSJzcGFjaW5nIiB0ZXh0TGVuZ3RoPSIyNjEiIHg9IjI1MS41IiB5PSIxNjkuMTU2MyI+Z2V0RXN0YWRvRGVsUGVkaWRvKCk6IEVzdGFkb0RlbFBlZGlkbzwvdGV4dD48ZWxsaXBzZSBjeD0iMjQyLjUiIGN5PSIxNzkuODk4NCIgZmlsbD0iIzg0QkU4NCIgcng9IjMiIHJ5PSIzIiBzdHlsZT0ic3Ryb2tlOiMwMzgwNDg7c3Ryb2tlLXdpZHRoOjEuMDsiLz48dGV4dCBmaWxsPSIjMDAwMDAwIiBmb250LWZhbWlseT0ic2Fucy1zZXJpZiIgZm9udC1zaXplPSIxNCIgbGVuZ3RoQWRqdXN0PSJzcGFjaW5nIiB0ZXh0TGVuZ3RoPSI0MDgiIHg9IjI1MS41IiB5PSIxODQuMTQwNiI+c2V0RXN0YWRvRGVsUGVkaWRvKGVzdGFkb0RlbFBlZGlkbzogRXN0YWRvRGVsUGVkaWRvKTogdm9pZDwvdGV4dD48L2c+PCEtLWNsYXNzIFJlZ2lzdHJvRGVWZWxhcy0tPjxnIGlkPSJlbGVtX1JlZ2lzdHJvRGVWZWxhcyI+PHJlY3QgY29kZUxpbmU9IjEwNSIgZmlsbD0iI0YxRjFGMSIgaGVpZ2h0PSIxMzcuOTA2MyIgaWQ9IlJlZ2lzdHJvRGVWZWxhcyIgcng9IjIuNSIgcnk9IjIuNSIgc3R5bGU9InN0cm9rZTojMTgxODE4O3N0cm9rZS13aWR0aDowLjU7IiB3aWR0aD0iMTg5IiB4PSIxMTk4IiB5PSI0NC41Ii8+PGVsbGlwc2UgY3g9IjEyMzYuNCIgY3k9IjYwLjUiIGZpbGw9IiNBREQxQjIiIHJ4PSIxMSIgcnk9IjExIiBzdHlsZT0ic3Ryb2tlOiMxODE4MTg7c3Ryb2tlLXdpZHRoOjEuMDsiLz48cGF0aCBkPSJNMTIzNC4wMjUsNjQuNzUgTDEyMzQuMDI1LDY2LjUgTDEyMzguOTYyNSw2Ni41IEwxMjM4Ljk2MjUsNjQuNzUgTDEyMzQuMDI1LDY0Ljc1IFogTTEyMzQuNzEyNSw2NS40Mzc1IFExMjM0LjcxMjUsNjUuNDM3NSAxMjM0LjcxMjUsNTYuMjUgTDEyMzIuOTYyNSw1Ni4yNSBRMTIzMi45NjI1LDU2LjI1IDEyMzIuOTYyNSw2NS40Mzc1IEwxMjM0LjcxMjUsNjUuNDM3NSBaIE0xMjM4LjI3NSw2NS40Mzc1IEwxMjQwLjAyNSw2NS40Mzc1IFExMjQwLjAyNSw2NS40Mzc1IDEyNDAuMDI1LDYyLjYyNSBMMTIzOC4yNzUsNjIuNjI1IFExMjM4LjI3NSw2Mi42MjUgMTIzOC4yNzUsNjUuNDM3NSBaIE0xMjM4LjI3NSw1Ni4yNSBRMTIzOC4yNzUsNTYuMjUgMTIzOC4yNzUsNTkuMDYyNSBMMTI0MC4wMjUsNTkuMDYyNSBRMTI0MC4wMjUsNTkuMDYyNSAxMjQwLjAyNSw1Ni4yNSBMMTIzOC4yNzUsNTYuMjUgWiBNMTIzNC4wMjUsNTYuOTM3NSBMMTIzOC45NjI1LDU2LjkzNzUgTDEyMzguOTYyNSw1NS4xODc1IEwxMjM0LjAyNSw1NS4xODc1IEwxMjM0LjAyNSw1Ni45Mzc1IFogIiBmaWxsPSIjMDAwMDAwIi8+PHRleHQgZmlsbD0iIzAwMDAwMCIgZm9udC1mYW1pbHk9InNhbnMtc2VyaWYiIGZvbnQtc2l6ZT0iMTQiIGxlbmd0aEFkanVzdD0ic3BhY2luZyIgdGV4dExlbmd0aD0iMTA1IiB4PSIxMjU1LjYiIHk9IjY2LjI0MjIiPlJlZ2lzdHJvRGVWZWxhczwvdGV4dD48bGluZSBzdHlsZT0ic3Ryb2tlOiMxODE4MTg7c3Ryb2tlLXdpZHRoOjAuNTsiIHgxPSIxMTk5IiB4Mj0iMTM4NiIgeTE9Ijc2LjUiIHkyPSI3Ni41Ii8+PHJlY3QgZmlsbD0ibm9uZSIgaGVpZ2h0PSI2IiBzdHlsZT0ic3Ryb2tlOiNDODI5MzA7c3Ryb2tlLXdpZHRoOjEuMDsiIHdpZHRoPSI2IiB4PSIxMjA2IiB5PSI4Ni40OTIyIi8+PHRleHQgZmlsbD0iIzAwMDAwMCIgZm9udC1mYW1pbHk9InNhbnMtc2VyaWYiIGZvbnQtc2l6ZT0iMTQiIGxlbmd0aEFkanVzdD0ic3BhY2luZyIgdGV4dExlbmd0aD0iMTI2IiB4PSIxMjE4IiB5PSI5My43MzQ0Ij52ZWxhczogTGlzdCZsdDtWZWxhcyZndDs8L3RleHQ+PGxpbmUgc3R5bGU9InN0cm9rZTojMTgxODE4O3N0cm9rZS13aWR0aDowLjU7IiB4MT0iMTE5OSIgeDI9IjEzODYiIHkxPSI5OS40ODQ0IiB5Mj0iOTkuNDg0NCIvPjxlbGxpcHNlIGN4PSIxMjA5IiBjeT0iMTEyLjQ3NjYiIGZpbGw9IiM4NEJFODQiIHJ4PSIzIiByeT0iMyIgc3R5bGU9InN0cm9rZTojMDM4MDQ4O3N0cm9rZS13aWR0aDoxLjA7Ii8+PHRleHQgZmlsbD0iIzAwMDAwMCIgZm9udC1mYW1pbHk9InNhbnMtc2VyaWYiIGZvbnQtc2l6ZT0iMTQiIGxlbmd0aEFkanVzdD0ic3BhY2luZyIgdGV4dExlbmd0aD0iMTIxIiB4PSIxMjE4IiB5PSIxMTYuNzE4OCI+UmVnaXN0cm9EZVZlbGFzKCk8L3RleHQ+PGVsbGlwc2UgY3g9IjEyMDkiIGN5PSIxMjcuNDYwOSIgZmlsbD0iIzg0QkU4NCIgcng9IjMiIHJ5PSIzIiBzdHlsZT0ic3Ryb2tlOiMwMzgwNDg7c3Ryb2tlLXdpZHRoOjEuMDsiLz48dGV4dCBmaWxsPSIjMDAwMDAwIiBmb250LWZhbWlseT0ic2Fucy1zZXJpZiIgZm9udC1zaXplPSIxNCIgbGVuZ3RoQWRqdXN0PSJzcGFjaW5nIiB0ZXh0TGVuZ3RoPSIxNjMiIHg9IjEyMTgiIHk9IjEzMS43MDMxIj5nZXRWZWxhcygpOiBMaXN0Jmx0O1ZlbGFzJmd0OzwvdGV4dD48ZWxsaXBzZSBjeD0iMTIwOSIgY3k9IjE0Mi40NDUzIiBmaWxsPSIjODRCRTg0IiByeD0iMyIgcnk9IjMiIHN0eWxlPSJzdHJva2U6IzAzODA0ODtzdHJva2Utd2lkdGg6MS4wOyIvPjx0ZXh0IGZpbGw9IiMwMDAwMDAiIGZvbnQtZmFtaWx5PSJzYW5zLXNlcmlmIiBmb250LXNpemU9IjE0IiBsZW5ndGhBZGp1c3Q9InNwYWNpbmciIHRleHRMZW5ndGg9IjEyMSIgeD0iMTIxOCIgeT0iMTQ2LjY4NzUiPk1vZGlmaWNhcigpOiB2b2lkPC90ZXh0PjxlbGxpcHNlIGN4PSIxMjA5IiBjeT0iMTU3LjQyOTciIGZpbGw9IiM4NEJFODQiIHJ4PSIzIiByeT0iMyIgc3R5bGU9InN0cm9rZTojMDM4MDQ4O3N0cm9rZS13aWR0aDoxLjA7Ii8+PHRleHQgZmlsbD0iIzAwMDAwMCIgZm9udC1mYW1pbHk9InNhbnMtc2VyaWYiIGZvbnQtc2l6ZT0iMTQiIGxlbmd0aEFkanVzdD0ic3BhY2luZyIgdGV4dExlbmd0aD0iMTE1IiB4PSIxMjE4IiB5PSIxNjEuNjcxOSI+RWxpbWluYXIoKTogdm9pZDwvdGV4dD48ZWxsaXBzZSBjeD0iMTIwOSIgY3k9IjE3Mi40MTQxIiBmaWxsPSIjODRCRTg0IiByeD0iMyIgcnk9IjMiIHN0eWxlPSJzdHJva2U6IzAzODA0ODtzdHJva2Utd2lkdGg6MS4wOyIvPjx0ZXh0IGZpbGw9IiMwMDAwMDAiIGZvbnQtZmFtaWx5PSJzYW5zLXNlcmlmIiBmb250LXNpemU9IjE0IiBsZW5ndGhBZGp1c3Q9InNwYWNpbmciIHRleHRMZW5ndGg9IjExNCIgeD0iMTIxOCIgeT0iMTc2LjY1NjMiPkluc2VydGFyKCk6IHZvaWQ8L3RleHQ+PC9nPjwhLS1jbGFzcyBWZW50YXMtLT48ZyBpZD0iZWxlbV9WZW50YXMiPjxyZWN0IGNvZGVMaW5lPSIxMTQiIGZpbGw9IiNGMUYxRjEiIGhlaWdodD0iMTIyLjkyMTkiIGlkPSJWZW50YXMiIHJ4PSIyLjUiIHJ5PSIyLjUiIHN0eWxlPSJzdHJva2U6IzE4MTgxODtzdHJva2Utd2lkdGg6MC41OyIgd2lkdGg9IjMxNSIgeD0iNzMxIiB5PSI2NzMiLz48ZWxsaXBzZSBjeD0iODYzLjI1IiBjeT0iNjg5IiBmaWxsPSIjQUREMUIyIiByeD0iMTEiIHJ5PSIxMSIgc3R5bGU9InN0cm9rZTojMTgxODE4O3N0cm9rZS13aWR0aDoxLjA7Ii8+PHBhdGggZD0iTTg2MC44NzUsNjkzLjI1IEw4NjAuODc1LDY5NSBMODY1LjgxMjUsNjk1IEw4NjUuODEyNSw2OTMuMjUgTDg2MC44NzUsNjkzLjI1IFogTTg2MS41NjI1LDY5My45Mzc1IFE4NjEuNTYyNSw2OTMuOTM3NSA4NjEuNTYyNSw2ODQuNzUgTDg1OS44MTI1LDY4NC43NSBRODU5LjgxMjUsNjg0Ljc1IDg1OS44MTI1LDY5My45Mzc1IEw4NjEuNTYyNSw2OTMuOTM3NSBaIE04NjUuMTI1LDY5My45Mzc1IEw4NjYuODc1LDY5My45Mzc1IFE4NjYuODc1LDY5My45Mzc1IDg2Ni44NzUsNjkxLjEyNSBMODY1LjEyNSw2OTEuMTI1IFE4NjUuMTI1LDY5MS4xMjUgODY1LjEyNSw2OTMuOTM3NSBaIE04NjUuMTI1LDY4NC43NSBRODY1LjEyNSw2ODQuNzUgODY1LjEyNSw2ODcuNTYyNSBMODY2Ljg3NSw2ODcuNTYyNSBRODY2Ljg3NSw2ODcuNTYyNSA4NjYuODc1LDY4NC43NSBMODY1LjEyNSw2ODQuNzUgWiBNODYwLjg3NSw2ODUuNDM3NSBMODY1LjgxMjUsNjg1LjQzNzUgTDg2NS44MTI1LDY4My42ODc1IEw4NjAuODc1LDY4My42ODc1IEw4NjAuODc1LDY4NS40Mzc1IFogIiBmaWxsPSIjMDAwMDAwIi8+PHRleHQgZmlsbD0iIzAwMDAwMCIgZm9udC1mYW1pbHk9InNhbnMtc2VyaWYiIGZvbnQtc2l6ZT0iMTQiIGxlbmd0aEFkanVzdD0ic3BhY2luZyIgdGV4dExlbmd0aD0iNDIiIHg9Ijg4My43NSIgeT0iNjk0Ljc0MjIiPlZlbnRhczwvdGV4dD48bGluZSBzdHlsZT0ic3Ryb2tlOiMxODE4MTg7c3Ryb2tlLXdpZHRoOjAuNTsiIHgxPSI3MzIiIHgyPSIxMDQ1IiB5MT0iNzA1IiB5Mj0iNzA1Ii8+PHJlY3QgZmlsbD0ibm9uZSIgaGVpZ2h0PSI2IiBzdHlsZT0ic3Ryb2tlOiNDODI5MzA7c3Ryb2tlLXdpZHRoOjEuMDsiIHdpZHRoPSI2IiB4PSI3MzkiIHk9IjcxNC45OTIyIi8+PHRleHQgZmlsbD0iIzAwMDAwMCIgZm9udC1mYW1pbHk9InNhbnMtc2VyaWYiIGZvbnQtc2l6ZT0iMTQiIGxlbmd0aEFkanVzdD0ic3BhY2luZyIgdGV4dExlbmd0aD0iMTMzIiB4PSI3NTEiIHk9IjcyMi4yMzQ0Ij50b3RhbFZlbnRhczogZG91YmxlPC90ZXh0PjxsaW5lIHN0eWxlPSJzdHJva2U6IzE4MTgxODtzdHJva2Utd2lkdGg6MC41OyIgeDE9IjczMiIgeDI9IjEwNDUiIHkxPSI3MjcuOTg0NCIgeTI9IjcyNy45ODQ0Ii8+PGVsbGlwc2UgY3g9Ijc0MiIgY3k9Ijc0MC45NzY2IiBmaWxsPSIjODRCRTg0IiByeD0iMyIgcnk9IjMiIHN0eWxlPSJzdHJva2U6IzAzODA0ODtzdHJva2Utd2lkdGg6MS4wOyIvPjx0ZXh0IGZpbGw9IiMwMDAwMDAiIGZvbnQtZmFtaWx5PSJzYW5zLXNlcmlmIiBmb250LXNpemU9IjE0IiBsZW5ndGhBZGp1c3Q9InNwYWNpbmciIHRleHRMZW5ndGg9IjU4IiB4PSI3NTEiIHk9Ijc0NS4yMTg4Ij5WZW50YXMoKTwvdGV4dD48ZWxsaXBzZSBjeD0iNzQyIiBjeT0iNzU1Ljk2MDkiIGZpbGw9IiM4NEJFODQiIHJ4PSIzIiByeT0iMyIgc3R5bGU9InN0cm9rZTojMDM4MDQ4O3N0cm9rZS13aWR0aDoxLjA7Ii8+PHRleHQgZmlsbD0iIzAwMDAwMCIgZm9udC1mYW1pbHk9InNhbnMtc2VyaWYiIGZvbnQtc2l6ZT0iMTQiIGxlbmd0aEFkanVzdD0ic3BhY2luZyIgdGV4dExlbmd0aD0iMTcwIiB4PSI3NTEiIHk9Ijc2MC4yMDMxIj5nZXRUb3RhbFZlbnRhcygpOiBkb3VibGU8L3RleHQ+PGVsbGlwc2UgY3g9Ijc0MiIgY3k9Ijc3MC45NDUzIiBmaWxsPSIjODRCRTg0IiByeD0iMyIgcnk9IjMiIHN0eWxlPSJzdHJva2U6IzAzODA0ODtzdHJva2Utd2lkdGg6MS4wOyIvPjx0ZXh0IGZpbGw9IiMwMDAwMDAiIGZvbnQtZmFtaWx5PSJzYW5zLXNlcmlmIiBmb250LXNpemU9IjE0IiBsZW5ndGhBZGp1c3Q9InNwYWNpbmciIHRleHRMZW5ndGg9IjI4OSIgeD0iNzUxIiB5PSI3NzUuMTg3NSI+c2V0VG90YWxWZW50YXModG90YWxWZW50YXM6IGRvdWJsZSk6IHZvaWQ8L3RleHQ+PGVsbGlwc2UgY3g9Ijc0MiIgY3k9Ijc4NS45Mjk3IiBmaWxsPSIjODRCRTg0IiByeD0iMyIgcnk9IjMiIHN0eWxlPSJzdHJva2U6IzAzODA0ODtzdHJva2Utd2lkdGg6MS4wOyIvPjx0ZXh0IGZpbGw9IiMwMDAwMDAiIGZvbnQtZmFtaWx5PSJzYW5zLXNlcmlmIiBmb250LXNpemU9IjE0IiBsZW5ndGhBZGp1c3Q9InNwYWNpbmciIHRleHRMZW5ndGg9IjI0OCIgeD0iNzUxIiB5PSI3OTAuMTcxOSI+cmVnaXN0cmFyVmVudGEobW9udG86IGRvdWJsZSk6IHZvaWQ8L3RleHQ+PC9nPjwhLS1yZXZlcnNlIGxpbmsgUGVkaWRvIHRvIEVzdGFkb0RlbFBlZGlkby0tPjxnIGlkPSJsaW5rX1BlZGlkb19Fc3RhZG9EZWxQZWRpZG8iPjxwYXRoIGNvZGVMaW5lPSIxMjIiIGQ9Ik03NzUuMTUsMjI4LjU5IEM3NTUuMTcsMjQ1LjUgNzM1LjEyLDI2Mi45NyA3MTYuNSwyODAgQzY3Ny4wNywzMTYuMDcgNjM0Ljc5LDM1OS4xMyA2MDMuMTgsMzkyLjI5ICIgZmlsbD0ibm9uZSIgaWQ9IlBlZGlkby1iYWNrdG8tRXN0YWRvRGVsUGVkaWRvIiBzdHlsZT0ic3Ryb2tlOiMxODE4MTg7c3Ryb2tlLXdpZHRoOjEuMDsiLz48cG9seWdvbiBmaWxsPSIjMTgxODE4IiBwb2ludHM9Ijc4NS4yNywyMjAuMDcsNzc4LjEwMzksMjIwLjg3NDUsNzc2LjA5MDQsMjI3Ljc5ODgsNzgzLjI1NjUsMjI2Ljk5NDMsNzg1LjI3LDIyMC4wNyIgc3R5bGU9InN0cm9rZTojMTgxODE4O3N0cm9rZS13aWR0aDoxLjA7Ii8+PC9nPjwhLS1yZXZlcnNlIGxpbmsgUGVkaWRvIHRvIFZlbGFzLS0+PGcgaWQ9ImxpbmtfUGVkaWRvX1ZlbGFzIj48cGF0aCBjb2RlTGluZT0iMTIzIiBkPSJNMTA0Ny4xNywyMjguOTYgQzEwNjUuODUsMjQ1LjQ1IDEwODUuMzksMjYyLjY5IDExMDQuOTIsMjc5LjkzICIgZmlsbD0ibm9uZSIgaWQ9IlBlZGlkby1iYWNrdG8tVmVsYXMiIHN0eWxlPSJzdHJva2U6IzE4MTgxODtzdHJva2Utd2lkdGg6MS4wOyIvPjxwb2x5Z29uIGZpbGw9IiMxODE4MTgiIHBvaW50cz0iMTAzNy4xOCwyMjAuMTQsMTAzOS4wMzEyLDIyNy4xMDk0LDEwNDYuMTc2NSwyMjguMDgxMiwxMDQ0LjMyNTMsMjIxLjExMTgsMTAzNy4xOCwyMjAuMTQiIHN0eWxlPSJzdHJva2U6IzE4MTgxODtzdHJva2Utd2lkdGg6MS4wOyIvPjwvZz48IS0tcmV2ZXJzZSBsaW5rIFBlZGlkbyB0byBDbGllbnRlLS0+PGcgaWQ9ImxpbmtfUGVkaWRvX0NsaWVudGUiPjxwYXRoIGNvZGVMaW5lPSIxMjQiIGQ9Ik05MDcuMSwyMzMuMTkgQzkwNC40OSwyNjIuOTQgOTAxLjcsMjk0Ljg5IDg5OS4wOCwzMjQuNzQgIiBmaWxsPSJub25lIiBpZD0iUGVkaWRvLWJhY2t0by1DbGllbnRlIiBzdHlsZT0ic3Ryb2tlOiMxODE4MTg7c3Ryb2tlLXdpZHRoOjEuMDsiLz48cG9seWdvbiBmaWxsPSIjMTgxODE4IiBwb2ludHM9IjkwOC4yNCwyMjAuMTQsOTAzLjcyNzgsMjI1Ljc2NDksOTA3LjE4NDUsMjMyLjA5MzUsOTExLjY5NjcsMjI2LjQ2ODYsOTA4LjI0LDIyMC4xNCIgc3R5bGU9InN0cm9rZTojMTgxODE4O3N0cm9rZS13aWR0aDoxLjA7Ii8+PC9nPjwhLS1yZXZlcnNlIGxpbmsgRW1wcmVzYURlTWVuc2FqZXI/YSB0byBFc3RhZG9EZWxQZWRpZG8tLT48ZyBpZD0ibGlua19FbXByZXNhRGVNZW5zYWplciYjMjM3O2FfRXN0YWRvRGVsUGVkaWRvIj48cGF0aCBjb2RlTGluZT0iMTI1IiBkPSJNNDc2LjQ2LDIwMi42NCBDNDk1LjY0LDI2My4xMSA1MjAuNDcsMzQxLjM2IDUzNi42OCwzOTIuNDcgIiBmaWxsPSJub25lIiBpZD0iRW1wcmVzYURlTWVuc2FqZXImIzIzNzthLWJhY2t0by1Fc3RhZG9EZWxQZWRpZG8iIHN0eWxlPSJzdHJva2U6IzE4MTgxODtzdHJva2Utd2lkdGg6MS4wOyIvPjxwb2x5Z29uIGZpbGw9IiMxODE4MTgiIHBvaW50cz0iNDcyLjQ2LDE5MC4wMiw0NzAuNDU4OSwxOTYuOTQ3OSw0NzYuMDg0MywyMDEuNDU5Niw0NzguMDg1MywxOTQuNTMxNyw0NzIuNDYsMTkwLjAyIiBzdHlsZT0ic3Ryb2tlOiMxODE4MTg7c3Ryb2tlLXdpZHRoOjEuMDsiLz48L2c+PCEtLXJldmVyc2UgbGluayBQcm92ZWVkb3IgdG8gTWF0ZXJpYVByaW1hLS0+PGcgaWQ9ImxpbmtfUHJvdmVlZG9yX01hdGVyaWFQcmltYSI+PHBhdGggY29kZUxpbmU9IjEyNiIgZD0iTTE3MTAuNSwxOTUuOTggQzE3MTAuNSwyMzAuMjggMTcxMC41LDI3MS4xNSAxNzEwLjUsMzA5Ljc3ICIgZmlsbD0ibm9uZSIgaWQ9IlByb3ZlZWRvci1iYWNrdG8tTWF0ZXJpYVByaW1hIiBzdHlsZT0ic3Ryb2tlOiMxODE4MTg7c3Ryb2tlLXdpZHRoOjEuMDsiLz48cG9seWdvbiBmaWxsPSIjMTgxODE4IiBwb2ludHM9IjE3MTAuNSwxODIuNjgsMTcwNi41LDE4OC42OCwxNzEwLjUsMTk0LjY4LDE3MTQuNSwxODguNjgsMTcxMC41LDE4Mi42OCIgc3R5bGU9InN0cm9rZTojMTgxODE4O3N0cm9rZS13aWR0aDoxLjA7Ii8+PC9nPjwhLS1yZXZlcnNlIGxpbmsgUmVnaXN0cm9EZVZlbGFzIHRvIFZlbGFzLS0+PGcgaWQ9ImxpbmtfUmVnaXN0cm9EZVZlbGFzX1ZlbGFzIj48cGF0aCBjb2RlTGluZT0iMTI3IiBkPSJNMTI5Mi41LDE5NS43IEMxMjkyLjUsMjIxLjI2IDEyOTIuNSwyNTAuNDggMTI5Mi41LDI3OS43MSAiIGZpbGw9Im5vbmUiIGlkPSJSZWdpc3Ryb0RlVmVsYXMtYmFja3RvLVZlbGFzIiBzdHlsZT0ic3Ryb2tlOiMxODE4MTg7c3Ryb2tlLXdpZHRoOjEuMDsiLz48cG9seWdvbiBmaWxsPSIjMTgxODE4IiBwb2ludHM9IjEyOTIuNSwxODIuNjgsMTI4OC41LDE4OC42OCwxMjkyLjUsMTk0LjY4LDEyOTYuNSwxODguNjgsMTI5Mi41LDE4Mi42OCIgc3R5bGU9InN0cm9rZTojMTgxODE4O3N0cm9rZS13aWR0aDoxLjA7Ii8+PC9nPjwhLS1yZXZlcnNlIGxpbmsgQ2xpZW50ZSB0byBWZW50YXMtLT48ZyBpZD0ibGlua19DbGllbnRlX1ZlbnRhcyI+PHBhdGggY29kZUxpbmU9IjEyOCIgZD0iTTg4OC41LDU4MS41MSBDODg4LjUsNjEzLjQyIDg4OC41LDY0NS45MyA4ODguNSw2NzIuNjUgIiBmaWxsPSJub25lIiBpZD0iQ2xpZW50ZS1iYWNrdG8tVmVudGFzIiBzdHlsZT0ic3Ryb2tlOiMxODE4MTg7c3Ryb2tlLXdpZHRoOjEuMDsiLz48cG9seWdvbiBmaWxsPSIjMTgxODE4IiBwb2ludHM9Ijg4OC41LDU2OC4zOCw4ODQuNSw1NzQuMzgsODg4LjUsNTgwLjM4LDg5Mi41LDU3NC4zOCw4ODguNSw1NjguMzgiIHN0eWxlPSJzdHJva2U6IzE4MTgxODtzdHJva2Utd2lkdGg6MS4wOyIvPjwvZz48IS0tU1JDPVtsTFRCUmppbTREdHg1NWV3Sk5xMWVTWjZUZjQwSVUyc0psU0pZTjRPSTZIMEthUkhlYVZBZWtXSFZCN285c2h1S1RlMkhOVklfRlpjcE9USXF1NktyUHFTRzUxVVZMaktyUWVROTE0Q1ViOU5kdklXeDYyNTNNVEFXMklkN3UzYXZ3Rmh5aW8tN09Zd3l6eEJpeVhFUXpQSjJBcHlsYldxNWlNd2V1R2Z1YjRtdGotQjZDRmpySnZ3UndhV0pLREZGcmFhVmdISVNLNlhzdjBUUU1kQlBMclRRemF4enRRMVNWaXA5X1l0empXNGwwcG82OU1zRWRCUTFqLWhWUzVIMm43bW42S0pLaVd6YUl4RjVDU0gxM2h3NU9KQlJ0YWFjYXdWeWNWcFY4NkRacUhTUFdJUG1vRUFHYjZzS2E3QkR3SHA2YmlTenhaZGxUUmVyeHMwVXRXMlBiLXNSQ2tFZm5WdGcwR3Y2OWlHeEdPS3FHVmwxRXJYbGl1REM0TFJRM1RLRmRENnhwa2pmYW5QdFJGV0hxOVFCa2ZnRHB4dzFqTDlyTE5CMXNybEN5TTdfUGkyaHBEVzlldzNQZUNLM0NQYWg1cUlCc0hXbWsxcVJCMTlNcWV3WE1SSURzNEcwTjhLSHpuV0hzWkt1N2ZkSEJ2YTBwZDJVV3ZxMHJxcFREaFNIRG5wMUxzTWUwU0dRWHVHSG1OVkpJY1hvbFVlUDF5NlItSFI0dlZKcEoyWUJ3dmtuNmtmcDlGMTM5ZmFPZzlNbVkzaGdDbFVMbEZpMUp4aUk3ZWs2a3J5dUVCcTBYNERZbEpGTjQwUkl6ZEc0eTZERW51N3FiM1N6Z2tBVkQ1aTRUUEdpbUg2a3g1OHJ6MUoxZFZJbmFRak9hNUREQXUzaGZuMWZDbFg5cnN2N25GOW1xb2dCRGpxaE9ReWFzYjNZZUlSUkN1Q0lfYnFVN2JDT2tBeGRVWENaaVVRYkZJUG5PN2VCeW5nbVVZTGtjTURYSlJxZ2llbDBOLXRzc2tsSmt1X3JwWm5nZ19KdFV6Y3BqcW5lTER5dXdHZHNPSVN4bE5obzd1bi00LTgwWWVSUHBJTzBQeU1CNFBqbWZPSWFSZGJ4bVdlUnF2ZFBGU2NUeS1wWmpFanNra1VheDBYRHVIOVUyOWNYN3BYN2FacDJEZlZodkRNNi1aUnI2SXlXUnlmS1lkeUxCQnRYSENDSV91Q0lxdEhQWHhRVm96MU9GOFpFVVo2NGplMnh6TFl6di1kbmRfR25KVXlmRy1xME5rSlgxSXQ3Sk5aNjBrbGNGeG9MS1k4RFp2SjBQZW9id1FKOTFsT1kyUDgteWFrTm5MT01HV09WbnBRZDQ1T2FzTWxGeTl2T09OdXZWNWNqU2ZBWExJTTZJbU85eE5PcUNMV3VNbDBRRjdia0tYQkVIcXVfWGF1WVNkcTVtMDBdLS0+PC9nPjwvc3ZnPg==;" parent="WIyWlLk6GJQsqaUBKTNV-1" vertex="1">
            <mxGeometry x="-270" y="40" width="1975" height="802" as="geometry" />
          </mxCell>
        </UserObject>
      </root>
    </mxGraphModel>
  </diagram>
</mxfile>
